<?xml version="1.0"?><svg xmlns="http://www.w3.org/2000/svg" width="24" height="24"><polygon points="5,7 6,7 6,5 7,5 7,4 8,4 8,3 9,3 9,2 16,2 16,3 17,3 17,4 18,4 18,6 19,6 19,13 18,13 18,15 16,15 16,16 15,16 15,17 17,17 17,20 16,20 16,21 15,21 15,22 14,22 14,23 13,23 13,24 11,24 11,23 10,23 10,22 9,22 9,21 8,21 8,20 7,20 7,17 9,17 9,16 8,16 8,15 6,15 6,13 5,13" fill="rgb(38,50,56)"/><polygon points="6,7 7,7 7,5 10,5 10,6 11,6 11,7 12,7 12,8 14,8 14,10 13,10 13,11 17,11 17,10 18,10 18,12 17,12 17,14 15,14 15,16 14,16 14,17 13,17 13,14 12,14 12,13 11,13 11,15 13,15 13,16 11,16 11,17 10,17 10,16 9,16 9,14 7,14 7,12 6,12 6,8 8,8 8,6 9,6 9,7 10,7 10,8 9,8 9,9 8,9 8,10 7,10 7,11 11,11 11,8 10,8 10,7 9,7 9,6 8,6 8,8 6,8" fill="rgb(121,85,72)"/><polygon points="7,18 8,18 8,19 9,19 9,20 10,20 10,21 14,21 14,20 15,20 15,19 16,19 16,18 17,18 17,20 16,20 16,21 15,21 15,22 14,22 14,23 13,23 13,24 11,24 11,23 10,23 10,22 9,22 9,21 8,21 8,20 7,20" fill="rgb(55,71,79)"/><polygon points="8,3 9,3 9,2 16,2 16,3 17,3 17,4 18,4 18,6 19,6 19,9 18,9 18,10 16,10 16,9 14,9 14,8 12,8 12,7 11,7 11,6 10,6 10,5 8,5" fill="rgb(0,150,136)"/><polygon points="8,9 9,9 9,8 10,8 10,10 8,10" fill="rgb(255,255,255)"/><polygon points="8,17 10,17 10,18 11,18 11,17 13,17 13,18 14,18 14,17 16,17 16,18 15,18 15,19 14,19 14,20 10,20 10,19 9,19 9,18 8,18" fill="rgb(121,85,72)"/><polygon points="14,9 16,9 16,10 14,10" fill="rgb(255,255,255)"/></svg>