<?xml version="1.0"?><svg xmlns="http://www.w3.org/2000/svg" width="24" height="24"><polygon points="1,2 3,2 3,0 6,0 6,3 7,3 7,4 8,4 8,3 10,3 10,1 11,1 11,0 13,0 13,1 14,1 14,3 16,3 16,4 17,4 17,3 18,3 18,0 21,0 21,2 23,2 23,5 20,5 20,7 19,7 19,13 18,13 18,15 19,15 19,16 20,16 20,17 23,17 23,20 21,20 21,22 18,22 18,19 16,19 16,20 14,20 14,21 10,21 10,20 8,20 8,19 6,19 6,22 3,22 3,20 1,20 1,17 4,17 4,16 5,16 5,15 6,15 6,13 5,13 5,7 4,7 4,5 1,5" fill="rgb(38,50,56)"/><polygon points="2,3 3,3 3,4 2,4" fill="rgb(0,188,212)"/><polygon points="2,18 4,18 4,17 5,17 5,16 6,16 6,15 8,15 8,16 7,16 7,18 6,18 6,19 5,19 5,21 4,21 4,20 3,20 3,19 2,19" fill="rgb(0,188,212)"/><polygon points="3,2 4,2 4,3 3,3" fill="rgb(0,188,212)"/><polygon points="3,3 4,3 4,2 5,2 5,3 6,3 6,4 7,4 7,8 5,8 5,7 4,7 4,5 3,5" fill="rgb(3,169,244)"/><polygon points="4,1 5,1 5,2 4,2" fill="rgb(0,188,212)"/><polygon points="6,8 7,8 7,5 8,5 8,4 10,4 10,5 11,5 11,6 13,6 13,5 14,5 14,4 16,4 16,5 17,5 17,8 18,8 18,12 17,12 17,14 15,14 15,17 14,17 14,16 10,16 10,17 9,17 9,14 7,14 7,12 6,12 6,9 8,9 8,12 11,12 11,10 10,10 10,9 8,9 8,6 10,6 10,7 14,7 14,6 16,6 16,9 14,9 14,10 13,10 13,12 12,12 12,13 11,13 11,15 13,15 13,12 16,12 16,6 14,6 14,7 10,7 10,6 8,6 8,9 6,9" fill="rgb(205,220,57)"/><polygon points="8,17 9,17 9,18 8,18" fill="rgb(205,220,57)"/><polygon points="9,10 10,10 10,11 9,11" fill="rgb(244,67,54)"/><polygon points="9,18 10,18 10,17 14,17 14,18 15,18 15,19 14,19 14,20 10,20 10,19 9,19" fill="rgb(205,220,57)"/><polygon points="10,1 11,1 11,0 13,0 13,1 14,1 14,5 13,5 13,6 11,6 11,5 10,5" fill="rgb(3,169,244)"/><polygon points="14,10 15,10 15,11 14,11" fill="rgb(244,67,54)"/><polygon points="15,17 16,17 16,18 15,18" fill="rgb(205,220,57)"/><polygon points="16,15 18,15 18,16 19,16 19,17 20,17 20,18 22,18 22,19 21,19 21,20 20,20 20,21 19,21 19,19 18,19 18,18 17,18 17,16 16,16" fill="rgb(0,188,212)"/><polygon points="17,4 18,4 18,3 19,3 19,2 20,2 20,3 21,3 21,5 20,5 20,7 19,7 19,8 17,8" fill="rgb(3,169,244)"/><polygon points="19,1 20,1 20,2 19,2" fill="rgb(0,188,212)"/><polygon points="20,2 21,2 21,3 20,3" fill="rgb(0,188,212)"/><polygon points="21,3 22,3 22,4 21,4" fill="rgb(0,188,212)"/></svg>