<?xml version="1.0"?><svg xmlns="http://www.w3.org/2000/svg" width="24" height="24"><polygon points="5,7 6,7 6,5 7,5 7,4 8,4 8,3 16,3 16,4 17,4 17,5 18,5 18,7 19,7 19,13 18,13 18,15 16,15 16,16 15,16 15,17 17,17 17,19 16,19 16,20 14,20 14,21 10,21 10,20 8,20 8,19 7,19 7,17 9,17 9,16 8,16 8,15 6,15 6,13 5,13" fill="rgb(38,50,56)"/><polygon points="6,7 7,7 7,5 8,5 8,4 16,4 16,5 17,5 17,7 18,7 18,12 17,12 17,14 15,14 15,17 14,17 14,16 13,16 13,14 12,14 12,13 11,13 11,15 13,15 13,16 10,16 10,17 9,17 9,14 7,14 7,12 6,12 6,8 8,8 8,6 9,6 9,5 11,5 11,8 9,8 9,9 8,9 8,10 7,10 7,11 11,11 11,5 15,5 15,6 16,6 16,8 15,8 15,9 14,9 14,10 13,10 13,11 17,11 17,8 16,8 16,6 15,6 15,5 9,5 9,6 8,6 8,8 6,8" fill="rgb(205,220,57)"/><polygon points="8,9 9,9 9,8 10,8 10,10 8,10" fill="rgb(255,205,210)"/><polygon points="8,17 9,17 9,18 8,18" fill="rgb(205,220,57)"/><polygon points="9,18 10,18 10,17 14,17 14,18 15,18 15,19 14,19 14,20 10,20 10,19 9,19" fill="rgb(205,220,57)"/><polygon points="14,9 15,9 15,8 16,8 16,10 14,10" fill="rgb(255,205,210)"/><polygon points="15,17 16,17 16,18 15,18" fill="rgb(205,220,57)"/></svg>