<?xml version="1.0"?><svg xmlns="http://www.w3.org/2000/svg" width="24" height="24"><polygon points="1,2 3,2 3,0 6,0 6,3 8,3 8,2 10,2 10,1 14,1 14,2 16,2 16,3 18,3 18,0 21,0 21,2 23,2 23,5 19,5 19,13 18,13 18,15 19,15 19,16 20,16 20,17 23,17 23,20 21,20 21,22 18,22 18,19 16,19 16,20 14,20 14,21 10,21 10,20 8,20 8,19 6,19 6,22 3,22 3,20 1,20 1,17 4,17 4,16 5,16 5,15 6,15 6,13 5,13 5,5 1,5" fill="rgb(38,50,56)"/><polygon points="2,3 3,3 3,2 4,2 4,1 5,1 5,3 6,3 6,5 5,5 5,4 2,4" fill="rgb(0,150,136)"/><polygon points="2,18 4,18 4,17 5,17 5,16 6,16 6,15 8,15 8,16 7,16 7,18 6,18 6,19 5,19 5,21 4,21 4,20 3,20 3,19 2,19" fill="rgb(0,150,136)"/><polygon points="6,7 7,7 7,6 9,6 9,4 11,4 11,5 13,5 13,6 14,6 14,7 15,7 15,6 16,6 16,5 17,5 17,7 18,7 18,12 17,12 17,14 15,14 15,16 14,16 14,17 13,17 13,12 12,12 12,8 9,8 9,9 8,9 8,10 7,10 7,11 11,11 11,8 12,8 12,12 13,12 13,13 11,13 11,14 12,14 12,15 13,15 13,16 11,16 11,17 10,17 10,16 9,16 9,14 7,14 7,12 6,12 6,8 8,8 8,7 10,7 10,6 12,6 12,7 13,7 13,8 15,8 15,9 14,9 14,10 13,10 13,11 17,11 17,8 13,8 13,7 12,7 12,6 10,6 10,7 8,7 8,8 6,8" fill="rgb(255,152,0)"/><polygon points="8,9 9,9 9,8 10,8 10,10 8,10" fill="rgb(76,175,80)"/><polygon points="8,17 10,17 10,18 11,18 11,19 13,19 13,18 14,18 14,17 16,17 16,18 15,18 15,19 14,19 14,20 10,20 10,19 9,19 9,18 8,18" fill="rgb(255,152,0)"/><polygon points="14,9 15,9 15,8 16,8 16,10 14,10" fill="rgb(76,175,80)"/><polygon points="16,15 18,15 18,16 19,16 19,17 20,17 20,18 22,18 22,19 21,19 21,20 20,20 20,21 19,21 19,19 18,19 18,18 17,18 17,16 16,16" fill="rgb(0,150,136)"/><polygon points="18,3 19,3 19,1 20,1 20,2 21,2 21,3 22,3 22,4 19,4 19,5 18,5" fill="rgb(0,150,136)"/></svg>