<?xml version="1.0"?><svg xmlns="http://www.w3.org/2000/svg" width="24" height="24"><rect width="24" height="24" style="fill:rgb(195,250,232)"/><polygon points="0,2 1,2 1,1 2,1 2,0 6,0 6,1 7,1 7,2 10,2 10,1 14,1 14,2 17,2 17,1 18,1 18,0 22,0 22,1 23,1 23,2 24,2 24,6 23,6 23,7 22,7 22,8 21,8 21,7 20,7 20,6 19,6 19,13 18,13 18,15 16,15 16,16 15,16 15,17 17,17 17,21 16,21 16,22 15,22 15,23 14,23 14,24 10,24 10,23 9,23 9,22 8,22 8,21 7,21 7,17 9,17 9,16 8,16 8,15 6,15 6,13 5,13 5,6 4,6 4,7 3,7 3,8 2,8 2,7 1,7 1,6 0,6" fill="rgb(38,50,56)"/><polygon points="1,2 2,2 2,1 6,1 6,2 7,2 7,3 8,3 8,4 9,4 9,6 8,6 8,5 7,5 7,4 6,4 6,3 5,3 5,2 4,2 4,3 3,3 3,7 2,7 2,6 1,6" fill="rgb(255,255,255)"/><polygon points="4,3 6,3 6,4 7,4 7,5 8,5 8,6 6,6 6,5 5,5 5,4 4,4" fill="rgb(255,152,195)"/><polygon points="4,4 5,4 5,5 4,5" fill="rgb(255,255,255)"/><polygon points="5,5 6,5 6,6 5,6" fill="rgb(255,255,255)"/><polygon points="6,6 8,6 8,7 6,7" fill="rgb(255,255,255)"/><polygon points="6,7 8,7 8,6 9,6 9,8 8,8 8,9 7,9 7,11 8,11 8,12 10,12 10,13 9,13 9,14 7,14 7,12 6,12" fill="rgb(103,58,183)"/><polygon points="7,18 8,18 8,19 9,19 9,20 10,20 10,21 14,21 14,20 15,20 15,19 16,19 16,18 17,18 17,21 16,21 16,22 15,22 15,23 14,23 14,24 10,24 10,23 9,23 9,22 8,22 8,21 7,21" fill="rgb(33,33,33)"/><polygon points="8,2 10,2 10,1 14,1 14,2 16,2 16,3 15,3 15,4 14,4 14,5 15,5 15,7 13,7 13,8 11,8 11,7 9,7 9,5 10,5 10,4 9,4 9,3 8,3" fill="rgb(63,81,181)"/><polygon points="8,17 10,17 10,18 11,18 11,17 13,17 13,18 14,18 14,17 16,17 16,18 15,18 15,19 14,19 14,20 10,20 10,19 9,19 9,18 8,18" fill="rgb(103,58,183)"/><polygon points="9,10 10,10 10,11 9,11" fill="rgb(255,87,34)"/><polygon points="9,13 11,13 11,14 13,14 13,13 15,13 15,15 14,15 14,16 10,16 10,15 9,15" fill="rgb(255,255,255)"/><polygon points="9,15 10,15 10,16 9,16" fill="rgb(103,58,183)"/><polygon points="10,12 14,12 14,13 13,13 13,14 11,14 11,13 10,13" fill="rgb(255,152,195)"/><polygon points="10,16 11,16 11,17 10,17" fill="rgb(103,58,183)"/><polygon points="11,8 13,8 13,12 11,12" fill="rgb(103,58,183)"/><polygon points="13,16 14,16 14,17 13,17" fill="rgb(103,58,183)"/><polygon points="14,10 15,10 15,11 14,11" fill="rgb(255,87,34)"/><polygon points="14,12 16,12 16,11 17,11 17,9 16,9 16,8 15,8 15,6 16,6 16,7 18,7 18,12 17,12 17,14 15,14 15,13 14,13" fill="rgb(103,58,183)"/><polygon points="14,15 15,15 15,16 14,16" fill="rgb(103,58,183)"/><polygon points="15,4 16,4 16,3 17,3 17,2 18,2 18,1 22,1 22,2 23,2 23,6 22,6 22,7 21,7 21,3 20,3 20,2 19,2 19,3 18,3 18,4 17,4 17,5 16,5 16,6 15,6" fill="rgb(255,255,255)"/><polygon points="16,5 17,5 17,4 18,4 18,3 20,3 20,4 19,4 19,5 18,5 18,6 16,6" fill="rgb(255,152,195)"/><polygon points="16,6 18,6 18,7 16,7" fill="rgb(255,255,255)"/><polygon points="18,5 19,5 19,6 18,6" fill="rgb(255,255,255)"/><polygon points="19,4 20,4 20,5 19,5" fill="rgb(255,255,255)"/></svg>