<?xml version="1.0"?><svg xmlns="http://www.w3.org/2000/svg" width="24" height="24"><rect width="24" height="24" style="fill:rgb(255,255,255)"/><polygon points="0,2 1,2 1,6 0,6" fill="rgb(38,50,56)"/><polygon points="2,18 4,18 4,17 5,17 5,16 6,16 6,15 8,15 8,16 7,16 7,18 6,18 6,19 5,19 5,21 4,21 4,20 3,20 3,19 2,19" fill="rgb(233,30,99)"/><polygon points="4,3 6,3 6,4 7,4 7,5 8,5 8,6 6,6 6,5 5,5 5,4 4,4" fill="rgb(255,152,195)"/><polygon points="6,6 8,6 8,7 6,7" fill="rgb(255,255,255)"/><polygon points="6,7 8,7 8,6 9,6 9,5 10,5 10,4 14,4 14,5 15,5 15,6 16,6 16,7 18,7 18,12 17,12 17,14 15,14 15,13 14,13 14,12 16,12 16,11 17,11 17,9 16,9 16,8 14,8 14,10 13,10 13,12 11,12 11,10 10,10 10,8 8,8 8,9 7,9 7,11 8,11 8,12 10,12 10,13 9,13 9,14 7,14 7,12 6,12" fill="rgb(244,67,54)"/><polygon points="7,4 6,4 6,3 5,3 5,2 4,2 4,3 3,3 3,7 2,7 2,6 1,6 1,2 2,2 2,1 6,1 6,2 7,2 7,3 8,3 8,4 9,4 9,6 8,6 8,5 7,5" fill="rgb(255,255,255)"/><polygon points="8,17 10,17 10,18 11,18 11,17 12,17 12,18 13,18 13,17 14,17 14,18 15,18 15,19 14,19 14,20 10,20 10,19 9,19 9,18 8,18" fill="rgb(244,67,54)"/><polygon points="9,10 10,10 10,11 9,11" fill="rgb(255,152,0)"/><polygon points="9,13 11,13 11,14 13,14 13,13 15,13 15,15 14,15 14,16 10,16 10,15 9,15" fill="rgb(255,255,255)"/><polygon points="9,15 10,15 10,16 9,16" fill="rgb(244,67,54)"/><polygon points="10,12 14,12 14,13 13,13 13,14 11,14 11,13 10,13" fill="rgb(255,152,195)"/><polygon points="10,16 11,16 11,17 10,17" fill="rgb(244,67,54)"/><polygon points="12,16 13,16 13,17 12,17" fill="rgb(244,67,54)"/><polygon points="14,10 15,10 15,11 14,11" fill="rgb(255,152,0)"/><polygon points="14,15 15,15 15,17 14,17" fill="rgb(244,67,54)"/><polygon points="15,4 16,4 16,3 17,3 17,2 18,2 18,1 22,1 22,2 23,2 23,6 22,6 22,7 21,7 21,3 20,3 20,2 19,2 19,3 18,3 18,4 17,4 17,5 16,5 16,6 15,6" fill="rgb(255,255,255)"/><polygon points="15,17 16,17 16,18 15,18" fill="rgb(244,67,54)"/><polygon points="16,5 17,5 17,4 18,4 18,3 20,3 20,4 19,4 19,5 18,5 18,6 16,6" fill="rgb(255,152,195)"/><polygon points="16,6 18,6 18,7 16,7" fill="rgb(255,255,255)"/><polygon points="16,15 18,15 18,16 19,16 19,17 20,17 20,18 22,18 22,19 21,19 21,20 20,20 20,21 19,21 19,19 18,19 18,18 17,18 17,16 16,16" fill="rgb(233,30,99)"/></svg>