<?xml version="1.0"?><svg xmlns="http://www.w3.org/2000/svg" width="24" height="24"><rect width="24" height="24" style="fill:rgb(51,154,240)" /><rect x="1" y="2" width="2" height="1" style="fill:rgb(38,50,56)" /><rect x="1" y="3" width="1" height="1" style="fill:rgb(38,50,56)" /><rect x="1" y="4" width="2" height="1" style="fill:rgb(38,50,56)" /><rect x="1" y="17" width="3" height="1" style="fill:rgb(38,50,56)" /><rect x="1" y="18" width="1" height="1" style="fill:rgb(38,50,56)" /><rect x="1" y="19" width="2" height="1" style="fill:rgb(38,50,56)" /><rect x="2" y="3" width="1" height="1" style="fill:rgb(244,67,54)" /><rect x="2" y="18" width="4" height="1" style="fill:rgb(244,67,54)" /><rect x="3" y="0" width="3" height="1" style="fill:rgb(38,50,56)" /><rect x="3" y="1" width="1" height="1" style="fill:rgb(38,50,56)" /><rect x="3" y="2" width="1" height="1" style="fill:rgb(244,67,54)" /><rect x="3" y="3" width="3" height="1" style="fill:rgb(0,150,136)" /><rect x="3" y="4" width="4" height="1" style="fill:rgb(0,150,136)" /><rect x="3" y="19" width="2" height="1" style="fill:rgb(244,67,54)" /><rect x="3" y="20" width="1" height="1" style="fill:rgb(38,50,56)" /><rect x="3" y="21" width="3" height="1" style="fill:rgb(38,50,56)" /><rect x="4" y="1" width="1" height="1" style="fill:rgb(244,67,54)" /><rect x="4" y="2" width="1" height="1" style="fill:rgb(0,150,136)" /><rect x="4" y="5" width="3" height="1" style="fill:rgb(0,150,136)" /><rect x="4" y="6" width="3" height="1" style="fill:rgb(0,150,136)" /><rect x="4" y="16" width="1" height="1" style="fill:rgb(38,50,56)" /><rect x="4" y="17" width="3" height="1" style="fill:rgb(244,67,54)" /><rect x="4" y="20" width="1" height="1" style="fill:rgb(244,67,54)" /><rect x="5" y="1" width="1" height="1" style="fill:rgb(38,50,56)" /><rect x="5" y="2" width="1" height="1" style="fill:rgb(38,50,56)" /><rect x="5" y="7" width="2" height="1" style="fill:rgb(0,150,136)" /><rect x="5" y="8" width="1" height="1" style="fill:rgb(38,50,56)" /><rect x="5" y="9" width="1" height="1" style="fill:rgb(38,50,56)" /><rect x="5" y="10" width="1" height="1" style="fill:rgb(38,50,56)" /><rect x="5" y="11" width="1" height="1" style="fill:rgb(38,50,56)" /><rect x="5" y="12" width="2" height="1" style="fill:rgb(38,50,56)" /><rect x="5" y="15" width="1" height="1" style="fill:rgb(38,50,56)" /><rect x="5" y="16" width="2" height="1" style="fill:rgb(244,67,54)" /><rect x="5" y="19" width="1" height="1" style="fill:rgb(38,50,56)" /><rect x="5" y="20" width="1" height="1" style="fill:rgb(38,50,56)" /><rect x="6" y="3" width="1" height="1" style="fill:rgb(38,50,56)" /><rect x="6" y="8" width="2" height="1" style="fill:rgb(255,152,0)" /><rect x="6" y="9" width="2" height="1" style="fill:rgb(255,152,0)" /><rect x="6" y="10" width="2" height="1" style="fill:rgb(255,152,0)" /><rect x="6" y="11" width="2" height="1" style="fill:rgb(255,152,0)" /><rect x="6" y="13" width="1" height="1" style="fill:rgb(38,50,56)" /><rect x="6" y="14" width="3" height="1" style="fill:rgb(38,50,56)" /><rect x="6" y="15" width="2" height="1" style="fill:rgb(244,67,54)" /><rect x="6" y="18" width="3" height="1" style="fill:rgb(38,50,56)" /><rect x="7" y="4" width="1" height="1" style="fill:rgb(38,50,56)" /><rect x="7" y="5" width="4" height="1" style="fill:rgb(255,152,0)" /><rect x="7" y="6" width="10" height="1" style="fill:rgb(255,152,0)" /><rect x="7" y="7" width="10" height="1" style="fill:rgb(255,152,0)" /><rect x="7" y="12" width="4" height="1" style="fill:rgb(255,152,0)" /><rect x="7" y="13" width="4" height="1" style="fill:rgb(255,152,0)" /><rect x="7" y="16" width="2" height="1" style="fill:rgb(38,50,56)" /><rect x="7" y="17" width="1" height="1" style="fill:rgb(38,50,56)" /><rect x="8" y="3" width="2" height="1" style="fill:rgb(38,50,56)" /><rect x="8" y="4" width="2" height="1" style="fill:rgb(255,152,0)" /><rect x="8" y="8" width="2" height="1" style="fill:rgb(38,50,56)" /><rect x="8" y="9" width="3" height="1" style="fill:rgb(38,50,56)" /><rect x="8" y="10" width="1" height="1" style="fill:rgb(38,50,56)" /><rect x="8" y="11" width="3" height="1" style="fill:rgb(38,50,56)" /><rect x="8" y="15" width="1" height="1" style="fill:rgb(38,50,56)" /><rect x="8" y="17" width="1" height="1" style="fill:rgb(255,152,0)" /><rect x="8" y="19" width="2" height="1" style="fill:rgb(38,50,56)" /><rect x="9" y="10" width="1" height="1" style="fill:rgb(233,30,99)" /><rect x="9" y="14" width="2" height="1" style="fill:rgb(255,152,0)" /><rect x="9" y="15" width="6" height="1" style="fill:rgb(255,152,0)" /><rect x="9" y="16" width="1" height="1" style="fill:rgb(255,152,0)" /><rect x="9" y="17" width="1" height="1" style="fill:rgb(38,50,56)" /><rect x="9" y="18" width="6" height="1" style="fill:rgb(255,152,0)" /><rect x="10" y="1" width="4" height="1" style="fill:rgb(0,150,136)" /><rect x="10" y="2" width="4" height="1" style="fill:rgb(0,150,136)" /><rect x="10" y="3" width="4" height="1" style="fill:rgb(0,150,136)" /><rect x="10" y="4" width="4" height="1" style="fill:rgb(0,150,136)" /><rect x="10" y="8" width="4" height="1" style="fill:rgb(255,152,0)" /><rect x="10" y="10" width="1" height="1" style="fill:rgb(38,50,56)" /><rect x="10" y="16" width="3" height="1" style="fill:rgb(38,50,56)" /><rect x="10" y="17" width="1" height="1" style="fill:rgb(255,152,0)" /><rect x="10" y="19" width="4" height="1" style="fill:rgb(255,152,0)" /><rect x="10" y="20" width="4" height="1" style="fill:rgb(38,50,56)" /><rect x="11" y="0" width="2" height="1" style="fill:rgb(0,150,136)" /><rect x="11" y="5" width="2" height="1" style="fill:rgb(0,150,136)" /><rect x="11" y="9" width="2" height="1" style="fill:rgb(255,152,0)" /><rect x="11" y="10" width="2" height="1" style="fill:rgb(255,152,0)" /><rect x="11" y="11" width="2" height="1" style="fill:rgb(255,152,0)" /><rect x="11" y="12" width="1" height="1" style="fill:rgb(38,50,56)" /><rect x="11" y="13" width="1" height="1" style="fill:rgb(38,50,56)" /><rect x="11" y="14" width="2" height="1" style="fill:rgb(38,50,56)" /><rect x="11" y="17" width="3" height="1" style="fill:rgb(38,50,56)" /><rect x="12" y="12" width="5" height="1" style="fill:rgb(255,152,0)" /><rect x="12" y="13" width="5" height="1" style="fill:rgb(255,152,0)" /><rect x="13" y="5" width="4" height="1" style="fill:rgb(255,152,0)" /><rect x="13" y="9" width="3" height="1" style="fill:rgb(38,50,56)" /><rect x="13" y="10" width="1" height="1" style="fill:rgb(38,50,56)" /><rect x="13" y="11" width="3" height="1" style="fill:rgb(38,50,56)" /><rect x="13" y="14" width="2" height="1" style="fill:rgb(255,152,0)" /><rect x="13" y="16" width="1" height="1" style="fill:rgb(255,152,0)" /><rect x="14" y="3" width="2" height="1" style="fill:rgb(38,50,56)" /><rect x="14" y="4" width="2" height="1" style="fill:rgb(255,152,0)" /><rect x="14" y="8" width="2" height="1" style="fill:rgb(38,50,56)" /><rect x="14" y="10" width="1" height="1" style="fill:rgb(233,30,99)" /><rect x="14" y="16" width="3" height="1" style="fill:rgb(38,50,56)" /><rect x="14" y="17" width="2" height="1" style="fill:rgb(255,152,0)" /><rect x="14" y="19" width="2" height="1" style="fill:rgb(38,50,56)" /><rect x="15" y="10" width="1" height="1" style="fill:rgb(38,50,56)" /><rect x="15" y="14" width="3" height="1" style="fill:rgb(38,50,56)" /><rect x="15" y="15" width="1" height="1" style="fill:rgb(38,50,56)" /><rect x="15" y="18" width="3" height="1" style="fill:rgb(38,50,56)" /><rect x="16" y="4" width="1" height="1" style="fill:rgb(38,50,56)" /><rect x="16" y="8" width="2" height="1" style="fill:rgb(255,152,0)" /><rect x="16" y="9" width="2" height="1" style="fill:rgb(255,152,0)" /><rect x="16" y="10" width="2" height="1" style="fill:rgb(255,152,0)" /><rect x="16" y="11" width="2" height="1" style="fill:rgb(255,152,0)" /><rect x="16" y="15" width="2" height="1" style="fill:rgb(244,67,54)" /><rect x="16" y="17" width="1" height="1" style="fill:rgb(38,50,56)" /><rect x="17" y="3" width="1" height="1" style="fill:rgb(38,50,56)" /><rect x="17" y="4" width="4" height="1" style="fill:rgb(0,150,136)" /><rect x="17" y="5" width="3" height="1" style="fill:rgb(0,150,136)" /><rect x="17" y="6" width="3" height="1" style="fill:rgb(0,150,136)" /><rect x="17" y="7" width="2" height="1" style="fill:rgb(0,150,136)" /><rect x="17" y="12" width="2" height="1" style="fill:rgb(38,50,56)" /><rect x="17" y="13" width="1" height="1" style="fill:rgb(38,50,56)" /><rect x="17" y="16" width="2" height="1" style="fill:rgb(244,67,54)" /><rect x="17" y="17" width="3" height="1" style="fill:rgb(244,67,54)" /><rect x="18" y="0" width="3" height="1" style="fill:rgb(38,50,56)" /><rect x="18" y="1" width="1" height="1" style="fill:rgb(38,50,56)" /><rect x="18" y="2" width="1" height="1" style="fill:rgb(38,50,56)" /><rect x="18" y="3" width="3" height="1" style="fill:rgb(0,150,136)" /><rect x="18" y="8" width="1" height="1" style="fill:rgb(38,50,56)" /><rect x="18" y="9" width="1" height="1" style="fill:rgb(38,50,56)" /><rect x="18" y="10" width="1" height="1" style="fill:rgb(38,50,56)" /><rect x="18" y="11" width="1" height="1" style="fill:rgb(38,50,56)" /><rect x="18" y="15" width="1" height="1" style="fill:rgb(38,50,56)" /><rect x="18" y="18" width="4" height="1" style="fill:rgb(244,67,54)" /><rect x="18" y="19" width="1" height="1" style="fill:rgb(38,50,56)" /><rect x="18" y="20" width="1" height="1" style="fill:rgb(38,50,56)" /><rect x="18" y="21" width="3" height="1" style="fill:rgb(38,50,56)" /><rect x="19" y="1" width="1" height="1" style="fill:rgb(244,67,54)" /><rect x="19" y="2" width="1" height="1" style="fill:rgb(0,150,136)" /><rect x="19" y="16" width="1" height="1" style="fill:rgb(38,50,56)" /><rect x="19" y="19" width="2" height="1" style="fill:rgb(244,67,54)" /><rect x="19" y="20" width="1" height="1" style="fill:rgb(244,67,54)" /><rect x="20" y="1" width="1" height="1" style="fill:rgb(38,50,56)" /><rect x="20" y="2" width="1" height="1" style="fill:rgb(244,67,54)" /><rect x="20" y="17" width="3" height="1" style="fill:rgb(38,50,56)" /><rect x="20" y="20" width="1" height="1" style="fill:rgb(38,50,56)" /><rect x="21" y="2" width="2" height="1" style="fill:rgb(38,50,56)" /><rect x="21" y="3" width="1" height="1" style="fill:rgb(244,67,54)" /><rect x="21" y="4" width="2" height="1" style="fill:rgb(38,50,56)" /><rect x="21" y="19" width="2" height="1" style="fill:rgb(38,50,56)" /><rect x="22" y="3" width="1" height="1" style="fill:rgb(38,50,56)" /><rect x="22" y="18" width="1" height="1" style="fill:rgb(38,50,56)" /></svg>