<?xml version="1.0"?><svg xmlns="http://www.w3.org/2000/svg" width="24" height="24"><rect width="24" height="24" style="fill:rgb(166,30,77)" /><polygon points="5,5 6,5 6,4 7,4 7,3 8,3 8,2 10,2 10,1 14,1 14,2 16,2 16,3 18,3 18,5 19,5 19,13 18,13 17,12 17,6 18,6 18,7 17,7 16,6 16,4 17,4 17,5 16,5 16,7 17,7 17,13 18,13 18,15 16,15 15,14 15,8 16,8 16,9 15,9 14,8 14,3 15,3 15,4 14,4 14,9 15,9 15,15 16,15 16,16 15,16 15,17 17,17 17,20 16,20 15,19 15,18 16,18 16,19 15,19 15,20 16,20 16,21 15,21 15,22 14,22 13,21 13,10 14,10 14,11 13,11 12,10 12,2 13,2 13,3 12,3 12,11 13,11 13,22 14,22 14,23 13,23 13,24 12,24 11,23 11,12 12,12 12,13 11,13 10,12 10,3 11,3 11,4 10,4 10,13 11,13 11,23 10,23 10,22 9,21 9,14 10,14 10,15 9,15 8,14 8,4 9,4 9,6 8,6 8,15 7,15 6,14 6,6 7,6 7,7 6,7 6,13 5,13 5,6 6,6 7,7 7,15 6,15 6,14 7,14 7,5 8,5 9,6 9,16 8,16 8,14 9,14 10,15 10,18 9,18 9,21 8,21 8,20 7,19 7,17 8,17 8,20 7,20 7,19 8,19 8,17 9,17 10,18 10,22 9,22 9,21 10,21 10,14 9,14 9,3 10,3 11,4 11,13 10,13 10,12 11,12 12,13 12,24 11,24 11,23 12,23 12,12 11,12 11,2 12,2 13,3 13,11 12,11 12,10 13,10 14,11 14,22 13,22 13,21 14,21 14,18 15,18 16,19 16,20 15,20 15,19 16,19 16,18 14,18 14,10 13,10 13,3 14,3 15,4 15,9 14,9 14,8 15,8 16,9 16,15 15,15 15,14 16,14 16,8 15,8 15,4 16,4 17,5 17,7 16,7 16,6 17,6 18,7 18,13 17,13 17,12 18,12 18,6 17,6 17,4 15,4 15,3 13,3 13,2 11,2 11,3 9,3 9,4 8,4 8,5 7,5 7,6 5,6" fill="rgb(38,50,56)" /><polygon points="5,5 6,5 6,4 7,4 7,3 8,3 8,2 10,2 10,1 14,1 14,2 16,2 16,3 18,3 18,5 19,5 19,7 17,7 17,5 16,5 16,6 15,6 14,5 14,3 15,3 15,4 14,4 14,6 13,6 13,5 12,4 12,2 13,2 13,3 12,3 12,5 11,5 11,4 9,4 9,3 11,3 11,2 12,2 13,3 13,5 12,5 12,4 13,4 13,3 14,3 15,4 15,7 14,7 14,5 15,5 15,3 13,3 13,2 11,2 11,3 9,3 9,6 6,6 6,7 5,7" fill="rgb(233,30,99)" /><polygon points="6,7 7,7 7,6 9,6 9,4 11,4 11,5 13,5 13,6 14,6 14,7 15,7 15,6 16,6 16,5 17,5 17,7 18,7 18,12 17,12 16,11 16,8 17,8 17,9 14,9 14,10 13,10 12,9 12,7 13,7 13,8 12,8 11,7 11,6 12,6 12,7 11,7 11,8 12,8 12,10 13,10 13,12 17,12 17,14 15,14 15,17 14,17 14,16 13,15 13,13 14,13 14,16 13,16 13,17 12,17 11,16 11,14 12,14 12,15 11,15 10,14 10,12 11,12 11,11 12,11 12,13 10,13 10,15 11,15 11,16 10,16 10,17 9,17 9,14 8,13 8,12 9,12 9,13 8,13 7,12 7,8 8,8 8,7 10,7 10,9 7,9 7,12 6,12 6,8 7,8 8,9 8,14 7,14 7,12 8,12 9,13 9,14 8,14 8,13 9,13 9,12 10,12 11,13 11,15 10,15 10,14 11,14 12,15 12,17 11,17 11,16 12,16 12,15 14,15 14,13 12,13 12,11 11,11 11,10 10,10 10,6 11,6 12,7 12,8 11,8 11,7 12,7 13,8 13,10 12,10 12,9 13,9 13,8 16,8 17,9 17,12 16,12 16,11 17,11 17,8 13,8 13,7 12,7 12,6 10,6 10,7 8,7 8,8 6,8" fill="rgb(255,87,34)" /><polygon points="7,18 8,18 8,19 9,19 9,20 10,20 10,21 14,21 14,20 15,20 15,19 16,19 16,18 17,18 17,20 16,20 16,21 15,21 15,22 14,22 14,23 13,23 13,24 12,24 11,23 11,22 12,22 12,23 10,23 10,22 11,22 12,23 12,24 11,24 11,23 12,23 12,22 9,22 9,21 8,21 8,20 7,20" fill="rgb(33,33,33)" /><polygon points="8,17 9,17 9,18 8,18" fill="rgb(255,87,34)" /><polygon points="9,10 10,10 10,11 9,11" fill="rgb(205,220,57)" /><polygon points="9,18 11,18 11,19 13,19 13,18 15,18 15,19 14,19 14,20 10,20 10,19 9,19" fill="rgb(255,87,34)" /><polygon points="14,10 15,10 15,11 14,11" fill="rgb(205,220,57)" /><polygon points="15,17 16,17 16,18 15,18" fill="rgb(255,87,34)" /></svg>