<?xml version="1.0"?><svg xmlns="http://www.w3.org/2000/svg" width="24" height="24"><rect width="24" height="24" style="fill:rgb(59,91,219)" /><polygon points="5,7 6,7 6,5 7,5 7,4 8,4 8,3 9,3 9,2 16,2 16,3 17,3 17,4 18,4 18,6 19,6 19,13 18,13 17,12 17,7 18,7 18,8 17,8 16,7 16,5 17,5 17,6 16,6 15,5 15,4 16,4 16,5 15,5 14,4 14,3 15,3 15,4 14,4 14,5 15,5 15,6 16,6 16,8 17,8 17,13 18,13 18,15 16,15 15,14 15,9 16,9 16,10 15,10 14,9 14,7 15,7 15,8 14,8 13,7 13,6 14,6 14,7 13,7 12,6 12,3 13,3 13,4 12,4 12,7 13,7 13,8 14,8 14,10 15,10 15,15 16,15 16,16 15,16 15,17 17,17 17,20 16,20 15,19 15,18 16,18 16,19 15,19 15,20 16,20 16,21 15,21 15,22 14,22 13,21 13,11 14,11 14,12 13,12 12,11 12,9 13,9 13,10 12,10 11,9 11,8 12,8 12,9 11,9 10,8 10,3 11,3 11,5 10,5 10,9 11,9 11,10 12,10 12,12 13,12 13,22 14,22 14,23 13,23 13,24 12,24 11,23 11,13 12,13 12,14 11,14 10,13 10,11 11,11 11,12 10,12 9,11 9,10 10,10 10,11 9,11 8,10 8,5 9,5 9,7 8,7 8,11 9,11 9,12 10,12 10,14 11,14 11,23 10,23 10,22 9,21 9,15 10,15 10,16 9,16 8,15 8,13 9,13 9,14 8,14 7,13 7,12 8,12 8,13 7,13 6,12 6,8 7,8 7,9 6,9 6,13 5,13 5,8 6,8 7,9 7,14 8,14 8,15 6,15 6,12 7,12 8,13 8,14 7,14 7,13 8,13 9,14 9,16 8,16 8,15 9,15 10,16 10,18 9,18 9,21 8,21 8,20 7,19 7,17 8,17 8,20 7,20 7,19 8,19 8,17 9,17 10,18 10,22 9,22 9,21 10,21 10,15 9,15 9,13 8,13 8,12 7,12 7,6 8,6 9,7 9,11 8,11 8,10 9,10 10,11 10,12 9,12 9,11 10,11 11,12 11,14 10,14 10,13 11,13 12,14 12,24 11,24 11,23 12,23 12,13 11,13 11,11 10,11 10,10 9,10 9,4 10,4 11,5 11,9 10,9 10,8 11,8 12,9 12,10 11,10 11,9 12,9 13,10 13,12 12,12 12,11 13,11 14,12 14,22 13,22 13,21 14,21 14,18 15,18 16,19 16,20 15,20 15,19 16,19 16,18 14,18 14,11 13,11 13,9 12,9 12,8 11,8 11,3 12,3 13,4 13,7 12,7 12,6 13,6 14,7 14,8 13,8 13,7 14,7 15,8 15,10 14,10 14,9 15,9 16,10 16,15 15,15 15,14 16,14 16,9 15,9 15,7 14,7 14,6 13,6 13,3 14,3 15,4 15,5 14,5 14,4 15,4 16,5 16,6 15,6 15,5 16,5 17,6 17,8 16,8 16,7 17,7 18,8 18,13 17,13 17,12 18,12 18,7 17,7 17,5 16,5 16,4 15,4 15,3 10,3 10,4 9,4 9,5 8,5 8,6 7,6 7,8 5,8" fill="rgb(38,50,56)" /><polygon points="6,7 7,7 7,5 10,5 10,6 11,6 11,7 12,7 12,8 14,8 14,10 13,10 13,12 16,12 16,11 17,11 17,10 18,10 18,12 17,12 17,14 15,14 15,16 14,16 13,15 13,13 14,13 14,17 13,17 13,16 12,16 11,15 11,14 12,14 12,15 11,15 10,14 10,12 11,12 11,9 12,9 12,10 11,10 10,9 10,8 11,8 11,10 10,10 10,9 11,9 12,10 12,13 10,13 10,15 11,15 11,16 10,16 10,17 9,17 9,14 8,13 8,12 9,12 9,13 8,13 7,12 7,11 8,11 8,12 7,12 6,11 6,8 8,8 8,9 7,9 7,12 6,12 6,11 7,11 8,12 8,14 7,14 7,12 8,12 9,13 9,14 8,14 8,13 9,13 9,12 10,12 11,13 11,15 10,15 10,14 11,14 12,15 12,16 11,16 11,15 14,15 14,13 12,13 12,9 11,9 11,8 9,8 8,7 8,6 9,6 9,8 8,8 8,7 9,7 9,6 8,6 8,8 6,8" fill="rgb(244,67,54)" /><polygon points="7,18 8,18 8,19 9,19 9,20 10,20 10,21 14,21 14,20 15,20 15,19 16,19 16,18 17,18 17,20 16,20 16,21 15,21 15,22 14,22 14,23 13,23 13,24 12,24 11,23 11,22 12,22 12,23 10,23 10,22 11,22 12,23 12,24 11,24 11,23 12,23 12,22 9,22 9,21 8,21 8,20 7,20" fill="rgb(33,33,33)" /><polygon points="8,17 9,17 9,18 8,18" fill="rgb(244,67,54)" /><polygon points="9,10 10,10 10,11 9,11" fill="rgb(233,30,99)" /><polygon points="9,18 10,18 10,17 11,17 11,18 14,18 14,17 16,17 16,18 15,18 15,19 14,19 14,20 10,20 10,19 9,19" fill="rgb(244,67,54)" /><polygon points="14,10 15,10 15,11 14,11" fill="rgb(233,30,99)" /></svg>