<?xml version="1.0"?><svg xmlns="http://www.w3.org/2000/svg" width="24" height="24"><rect width="24" height="24" style="fill:rgb(134,142,150)" /><rect x="5" y="7" width="1" height="1" style="fill:rgb(38,50,56)" /><rect x="5" y="8" width="1" height="1" style="fill:rgb(38,50,56)" /><rect x="5" y="9" width="1" height="1" style="fill:rgb(38,50,56)" /><rect x="5" y="10" width="1" height="1" style="fill:rgb(38,50,56)" /><rect x="5" y="11" width="1" height="1" style="fill:rgb(38,50,56)" /><rect x="5" y="12" width="2" height="1" style="fill:rgb(38,50,56)" /><rect x="6" y="5" width="1" height="1" style="fill:rgb(38,50,56)" /><rect x="6" y="6" width="1" height="1" style="fill:rgb(38,50,56)" /><rect x="6" y="7" width="12" height="1" style="fill:rgb(255,235,59)" /><rect x="6" y="8" width="2" height="1" style="fill:rgb(255,235,59)" /><rect x="6" y="9" width="1" height="1" style="fill:rgb(255,235,59)" /><rect x="6" y="10" width="1" height="1" style="fill:rgb(255,235,59)" /><rect x="6" y="11" width="2" height="1" style="fill:rgb(255,235,59)" /><rect x="6" y="13" width="1" height="1" style="fill:rgb(38,50,56)" /><rect x="6" y="14" width="3" height="1" style="fill:rgb(38,50,56)" /><rect x="7" y="4" width="1" height="1" style="fill:rgb(38,50,56)" /><rect x="7" y="5" width="10" height="1" style="fill:rgb(255,235,59)" /><rect x="7" y="6" width="10" height="1" style="fill:rgb(255,235,59)" /><rect x="7" y="9" width="4" height="1" style="fill:rgb(38,50,56)" /><rect x="7" y="10" width="2" height="1" style="fill:rgb(38,50,56)" /><rect x="7" y="12" width="5" height="1" style="fill:rgb(255,235,59)" /><rect x="7" y="13" width="5" height="1" style="fill:rgb(255,235,59)" /><rect x="7" y="17" width="1" height="1" style="fill:rgb(38,50,56)" /><rect x="7" y="18" width="2" height="1" style="fill:rgb(38,50,56)" /><rect x="8" y="3" width="8" height="1" style="fill:rgb(38,50,56)" /><rect x="8" y="4" width="8" height="1" style="fill:rgb(255,235,59)" /><rect x="8" y="8" width="2" height="1" style="fill:rgb(38,50,56)" /><rect x="8" y="11" width="3" height="1" style="fill:rgb(38,50,56)" /><rect x="8" y="15" width="1" height="1" style="fill:rgb(38,50,56)" /><rect x="8" y="17" width="3" height="1" style="fill:rgb(255,235,59)" /><rect x="8" y="19" width="2" height="1" style="fill:rgb(38,50,56)" /><rect x="9" y="10" width="1" height="1" style="fill:rgb(255,152,0)" /><rect x="9" y="14" width="2" height="1" style="fill:rgb(255,235,59)" /><rect x="9" y="15" width="6" height="1" style="fill:rgb(255,235,59)" /><rect x="9" y="16" width="1" height="1" style="fill:rgb(255,235,59)" /><rect x="9" y="18" width="6" height="1" style="fill:rgb(255,235,59)" /><rect x="10" y="8" width="4" height="1" style="fill:rgb(255,235,59)" /><rect x="10" y="10" width="1" height="1" style="fill:rgb(38,50,56)" /><rect x="10" y="16" width="3" height="1" style="fill:rgb(38,50,56)" /><rect x="10" y="19" width="4" height="1" style="fill:rgb(255,235,59)" /><rect x="10" y="20" width="4" height="1" style="fill:rgb(38,50,56)" /><rect x="11" y="9" width="2" height="1" style="fill:rgb(255,235,59)" /><rect x="11" y="10" width="2" height="1" style="fill:rgb(255,235,59)" /><rect x="11" y="11" width="2" height="1" style="fill:rgb(255,235,59)" /><rect x="11" y="14" width="2" height="1" style="fill:rgb(38,50,56)" /><rect x="11" y="17" width="3" height="1" style="fill:rgb(38,50,56)" /><rect x="12" y="12" width="1" height="1" style="fill:rgb(38,50,56)" /><rect x="12" y="13" width="1" height="1" style="fill:rgb(38,50,56)" /><rect x="13" y="9" width="4" height="1" style="fill:rgb(38,50,56)" /><rect x="13" y="10" width="1" height="1" style="fill:rgb(38,50,56)" /><rect x="13" y="11" width="3" height="1" style="fill:rgb(38,50,56)" /><rect x="13" y="12" width="4" height="1" style="fill:rgb(255,235,59)" /><rect x="13" y="13" width="4" height="1" style="fill:rgb(255,235,59)" /><rect x="13" y="14" width="2" height="1" style="fill:rgb(255,235,59)" /><rect x="13" y="16" width="2" height="1" style="fill:rgb(255,235,59)" /><rect x="14" y="8" width="2" height="1" style="fill:rgb(38,50,56)" /><rect x="14" y="10" width="1" height="1" style="fill:rgb(255,152,0)" /><rect x="14" y="17" width="2" height="1" style="fill:rgb(255,235,59)" /><rect x="14" y="19" width="2" height="1" style="fill:rgb(38,50,56)" /><rect x="15" y="10" width="2" height="1" style="fill:rgb(38,50,56)" /><rect x="15" y="14" width="3" height="1" style="fill:rgb(38,50,56)" /><rect x="15" y="15" width="1" height="1" style="fill:rgb(38,50,56)" /><rect x="15" y="18" width="2" height="1" style="fill:rgb(38,50,56)" /><rect x="16" y="4" width="1" height="1" style="fill:rgb(38,50,56)" /><rect x="16" y="8" width="2" height="1" style="fill:rgb(255,235,59)" /><rect x="16" y="11" width="2" height="1" style="fill:rgb(255,235,59)" /><rect x="16" y="17" width="1" height="1" style="fill:rgb(38,50,56)" /><rect x="17" y="5" width="1" height="1" style="fill:rgb(38,50,56)" /><rect x="17" y="6" width="1" height="1" style="fill:rgb(38,50,56)" /><rect x="17" y="9" width="1" height="1" style="fill:rgb(255,235,59)" /><rect x="17" y="10" width="1" height="1" style="fill:rgb(255,235,59)" /><rect x="17" y="12" width="2" height="1" style="fill:rgb(38,50,56)" /><rect x="17" y="13" width="1" height="1" style="fill:rgb(38,50,56)" /><rect x="18" y="7" width="1" height="1" style="fill:rgb(38,50,56)" /><rect x="18" y="8" width="1" height="1" style="fill:rgb(38,50,56)" /><rect x="18" y="9" width="1" height="1" style="fill:rgb(38,50,56)" /><rect x="18" y="10" width="1" height="1" style="fill:rgb(38,50,56)" /><rect x="18" y="11" width="1" height="1" style="fill:rgb(38,50,56)" /></svg>