<?xml version="1.0"?><svg xmlns="http://www.w3.org/2000/svg" width="24" height="24"><rect width="24" height="24" style="fill:rgb(156,54,181)" /><polygon points="5,7 6,7 6,5 7,5 7,4 8,4 8,3 9,3 9,2 16,2 16,3 17,3 17,4 18,4 18,6 19,6 19,13 18,13 18,15 16,15 16,16 15,16 15,17 17,17 17,21 16,21 16,22 15,22 15,23 14,23 14,24 10,24 10,23 9,23 9,22 8,22 8,21 7,21 7,17 9,17 9,16 8,16 8,15 6,15 6,13 5,13" fill="rgb(38,50,56)" /><polygon points="6,7 7,7 7,5 8,5 8,3 9,3 9,2 16,2 16,3 17,3 17,4 18,4 18,6 19,6 19,9 18,9 18,12 17,12 17,14 15,14 15,16 14,16 14,17 13,17 13,16 12,16 12,17 11,17 11,16 10,16 10,17 9,17 9,14 7,14 7,12 6,12 6,8 8,8 8,9 7,9 7,11 8,11 8,12 11,12 11,9 10,9 10,8 8,8 8,6 9,6 9,4 10,4 10,3 13,3 13,6 14,6 14,7 15,7 15,9 13,9 13,12 12,12 12,13 11,13 11,15 13,15 13,12 16,12 16,11 17,11 17,10 16,10 16,9 15,9 15,7 14,7 14,6 13,6 13,3 10,3 10,4 9,4 9,6 8,6 8,8 6,8" fill="rgb(156,39,176)" /><polygon points="7,18 8,18 8,19 9,19 9,20 10,20 10,21 14,21 14,20 15,20 15,19 16,19 16,18 17,18 17,21 16,21 16,22 15,22 15,23 14,23 14,24 10,24 10,23 9,23 9,22 8,22 8,21 7,21" fill="rgb(33,33,33)" /><polygon points="8,17 9,17 9,18 8,18" fill="rgb(156,39,176)" /><polygon points="9,10 10,10 10,11 9,11" fill="rgb(255,87,34)" /><polygon points="9,18 10,18 10,17 11,17 11,18 12,18 12,17 13,17 13,18 14,18 14,17 16,17 16,18 15,18 15,19 14,19 14,20 10,20 10,19 9,19" fill="rgb(156,39,176)" /><polygon points="14,10 15,10 15,11 14,11" fill="rgb(255,87,34)" /></svg>