<?xml version="1.0"?><svg xmlns="http://www.w3.org/2000/svg" width="24" height="24"><rect width="24" height="24" style="fill:rgb(252,196,25)" /><polygon points="5,5 6,5 6,3 7,3 7,2 8,2 8,1 16,1 16,2 17,2 17,3 18,3 18,5 19,5 19,13 18,13 18,15 16,15 16,16 15,16 15,17 17,17 17,19 16,19 16,20 14,20 14,21 10,21 10,20 8,20 8,19 7,19 7,17 9,17 9,16 8,16 8,15 6,15 6,13 5,13" fill="rgb(38,50,56)" /><polygon points="6,7 7,7 7,6 8,6 8,4 10,4 10,7 11,7 11,8 13,8 13,7 14,7 14,4 16,4 16,6 17,6 17,7 18,7 18,12 17,12 17,14 15,14 15,16 14,16 14,17 13,17 13,14 12,14 12,13 11,13 11,15 13,15 13,16 12,16 12,17 11,17 11,16 10,16 10,17 9,17 9,14 7,14 7,12 6,12 6,8 8,8 8,12 11,12 11,9 13,9 13,12 16,12 16,8 14,8 14,9 10,9 10,8 6,8" fill="rgb(205,220,57)" /><polygon points="8,17 9,17 9,18 8,18" fill="rgb(205,220,57)" /><polygon points="9,10 10,10 10,11 9,11" fill="rgb(205,220,57)" /><polygon points="9,18 10,18 10,17 11,17 11,18 12,18 12,17 13,17 13,18 14,18 14,17 16,17 16,18 15,18 15,19 14,19 14,20 10,20 10,19 9,19" fill="rgb(205,220,57)" /><polygon points="14,10 15,10 15,11 14,11" fill="rgb(205,220,57)" /></svg>