<?xml version="1.0"?><svg xmlns="http://www.w3.org/2000/svg" width="24" height="24"><rect width="24" height="24" style="fill:rgb(12,133,153)" /><polygon points="3,3 4,3 4,2 5,2 5,3 6,3 6,4 8,4 8,3 16,3 16,4 18,4 18,3 19,3 19,2 20,2 20,3 21,3 21,5 20,5 20,7 19,7 19,13 18,13 18,15 16,15 16,16 15,16 15,17 17,17 17,19 16,19 16,20 14,20 14,21 10,21 10,20 8,20 8,19 7,19 7,17 9,17 9,16 8,16 8,15 6,15 6,13 5,13 5,7 4,7 4,5 3,5" fill="rgb(38,50,56)" /><polygon points="3,3 4,3 4,2 5,2 5,3 6,3 6,4 7,4 7,8 5,8 5,7 4,7 4,5 3,5" fill="rgb(205,220,57)" /><polygon points="6,8 7,8 7,5 8,5 8,4 16,4 16,5 17,5 17,8 18,8 18,12 17,12 17,14 15,14 15,16 14,16 14,17 13,17 13,13 11,13 11,14 12,14 12,15 13,15 13,16 11,16 11,17 10,17 10,16 9,16 9,14 7,14 7,12 6,12 6,9 7,9 7,11 8,11 8,12 11,12 11,9 10,9 10,8 8,8 8,6 9,6 9,5 15,5 15,6 16,6 16,8 14,8 14,9 13,9 13,12 16,12 16,11 17,11 17,9 16,9 16,6 15,6 15,5 9,5 9,6 8,6 8,9 6,9" fill="rgb(233,30,99)" /><polygon points="8,17 10,17 10,18 11,18 11,19 13,19 13,18 14,18 14,17 16,17 16,18 15,18 15,19 14,19 14,20 10,20 10,19 9,19 9,18 8,18" fill="rgb(233,30,99)" /><polygon points="9,10 10,10 10,11 9,11" fill="rgb(233,30,99)" /><polygon points="14,10 15,10 15,11 14,11" fill="rgb(233,30,99)" /><polygon points="17,4 18,4 18,3 19,3 19,2 20,2 20,3 21,3 21,5 20,5 20,7 19,7 19,8 17,8" fill="rgb(205,220,57)" /></svg>