<?xml version="1.0"?><svg xmlns="http://www.w3.org/2000/svg" width="24" height="24"><rect width="24" height="24" style="fill:rgb(102,168,15)" /><polygon points="5,5 6,5 6,4 7,4 7,3 8,3 8,2 10,2 10,1 14,1 14,2 16,2 16,3 18,3 18,5 19,5 19,13 18,13 18,15 16,15 16,16 15,16 15,17 17,17 17,21 16,21 16,22 15,22 15,23 14,23 14,24 10,24 10,23 9,23 9,22 8,22 8,21 7,21 7,17 9,17 9,16 8,16 8,15 6,15 6,13 5,13" fill="rgb(38,50,56)" /><polygon points="6,7 7,7 7,6 9,6 9,4 11,4 11,5 13,5 13,6 14,6 14,7 13,7 13,12 16,12 16,11 17,11 17,9 16,9 16,8 15,8 15,6 16,6 16,5 17,5 17,7 18,7 18,12 17,12 17,14 15,14 15,17 16,17 16,18 15,18 15,19 14,19 14,20 10,20 10,19 9,19 9,18 8,18 8,17 9,17 9,14 7,14 7,12 6,12 6,8 8,8 8,9 7,9 7,11 8,11 8,12 11,12 11,7 10,7 10,6 12,6 12,13 11,13 11,15 13,15 13,14 12,14 12,13 14,13 14,17 13,17 13,16 10,16 10,17 11,17 11,18 14,18 14,13 12,13 12,6 10,6 10,7 9,7 9,8 6,8" fill="rgb(3,169,244)" /><polygon points="7,18 8,18 8,19 9,19 9,20 10,20 10,21 14,21 14,20 15,20 15,19 16,19 16,18 17,18 17,21 16,21 16,22 15,22 15,23 14,23 14,24 10,24 10,23 9,23 9,22 8,22 8,21 7,21" fill="rgb(69,90,100)" /><polygon points="9,10 10,10 10,11 9,11" fill="rgb(255,193,7)" /><polygon points="14,10 15,10 15,11 14,11" fill="rgb(255,193,7)" /></svg>