<?xml version="1.0"?><svg xmlns="http://www.w3.org/2000/svg" width="24" height="24"><rect width="24" height="24" style="fill:rgb(21,170,191)" /><polygon points="1,2 3,2 3,0 6,0 6,3 7,3 7,4 8,4 8,3 10,3 10,1 11,1 11,0 13,0 13,1 14,1 14,3 16,3 16,4 17,4 17,3 18,3 18,0 21,0 21,2 23,2 23,5 19,5 19,6 18,6 18,7 19,7 19,13 18,13 18,15 19,15 19,16 20,16 20,17 23,17 23,20 21,20 21,22 18,22 18,19 16,19 16,20 14,20 14,21 10,21 10,20 8,20 8,19 6,19 6,22 3,22 3,20 1,20 1,17 4,17 4,16 5,16 5,15 6,15 6,13 5,13 5,7 6,7 6,6 5,6 5,5 1,5" fill="rgb(38,50,56)" /><polygon points="2,3 3,3 3,2 4,2 4,1 5,1 5,3 6,3 6,4 7,4 7,5 5,5 5,4 2,4" fill="rgb(205,220,57)" /><polygon points="2,18 4,18 4,17 5,17 5,16 6,16 6,15 8,15 8,16 7,16 7,18 6,18 6,19 5,19 5,21 4,21 4,20 3,20 3,19 2,19" fill="rgb(205,220,57)" /><polygon points="6,7 7,7 7,5 8,5 8,4 10,4 10,5 11,5 11,6 13,6 13,5 14,5 14,4 16,4 16,5 17,5 17,7 18,7 18,12 17,12 17,14 15,14 15,16 14,16 14,17 13,17 13,13 11,13 11,14 12,14 12,15 13,15 13,16 11,16 11,17 10,17 10,16 9,16 9,14 7,14 7,12 6,12 6,8 8,8 8,6 10,6 10,7 11,7 11,8 9,8 9,9 8,9 8,10 7,10 7,11 11,11 11,7 14,7 14,6 16,6 16,8 15,8 15,9 14,9 14,10 13,10 13,11 17,11 17,8 16,8 16,6 14,6 14,7 10,7 10,6 8,6 8,8 6,8" fill="rgb(63,81,181)" /><polygon points="8,9 9,9 9,8 10,8 10,10 8,10" fill="rgb(33,150,243)" /><polygon points="8,17 10,17 10,18 11,18 11,19 13,19 13,18 14,18 14,17 16,17 16,18 15,18 15,19 14,19 14,20 10,20 10,19 9,19 9,18 8,18" fill="rgb(63,81,181)" /><polygon points="10,1 11,1 11,0 13,0 13,1 14,1 14,5 13,5 13,6 11,6 11,5 10,5" fill="rgb(255,205,210)" /><polygon points="14,9 15,9 15,8 16,8 16,10 14,10" fill="rgb(33,150,243)" /><polygon points="16,15 18,15 18,16 19,16 19,17 20,17 20,18 22,18 22,19 21,19 21,20 20,20 20,21 19,21 19,19 18,19 18,18 17,18 17,16 16,16" fill="rgb(205,220,57)" /><polygon points="17,4 18,4 18,3 19,3 19,1 20,1 20,2 21,2 21,3 22,3 22,4 19,4 19,5 17,5" fill="rgb(205,220,57)" /></svg>