<?xml version="1.0"?><svg xmlns="http://www.w3.org/2000/svg" width="24" height="24"><rect width="24" height="24" style="fill:rgb(99,230,190)" /><polygon points="5,7 6,7 6,5 7,5 7,4 8,4 8,3 10,3 10,1 11,1 11,0 13,0 13,1 14,1 14,3 16,3 16,4 17,4 17,5 18,5 18,7 19,7 19,13 18,13 17,12 17,8 18,8 18,9 17,9 16,8 16,6 17,6 17,7 16,7 15,6 15,5 16,5 16,6 15,6 14,5 14,4 15,4 15,5 14,5 14,6 15,6 15,7 16,7 16,9 17,9 17,13 18,13 18,15 16,15 15,14 15,10 16,10 16,11 15,11 14,10 14,8 15,8 15,9 14,9 13,8 13,7 14,7 14,8 13,8 12,7 12,2 13,2 13,3 12,3 12,8 13,8 13,9 14,9 14,11 15,11 15,15 16,15 16,16 15,16 15,17 17,17 17,19 16,19 16,20 15,20 14,19 14,18 15,18 15,19 14,19 13,18 13,12 14,12 14,13 13,13 12,12 12,10 13,10 13,11 12,11 11,10 11,9 12,9 12,10 11,10 10,9 10,4 11,4 11,5 10,5 10,10 11,10 11,11 12,11 12,13 13,13 13,19 14,19 14,21 12,21 11,20 11,14 12,14 12,15 11,15 10,14 10,12 11,12 11,13 10,13 9,12 9,11 10,11 10,12 9,12 8,11 8,5 9,5 9,7 8,7 8,12 9,12 9,13 10,13 10,15 11,15 11,21 10,21 10,20 9,19 9,16 10,16 10,18 9,18 9,20 8,20 8,19 7,18 7,17 8,17 8,19 7,19 7,18 8,18 8,17 9,17 10,18 10,20 9,20 9,19 10,19 10,16 9,16 8,15 8,14 9,14 9,15 8,15 7,14 7,13 8,13 8,14 7,14 6,13 6,8 7,8 7,9 6,9 6,13 5,13 5,8 6,8 7,9 7,15 6,15 6,13 7,13 8,14 8,15 7,15 7,14 8,14 9,15 9,16 8,16 8,15 9,15 9,14 8,14 8,13 7,13 7,6 8,6 9,7 9,12 8,12 8,11 9,11 10,12 10,13 9,13 9,12 10,12 11,13 11,15 10,15 10,14 11,14 12,15 12,21 11,21 11,20 12,20 12,14 11,14 11,12 10,12 10,11 9,11 9,4 10,4 11,5 11,10 10,10 10,9 11,9 12,10 12,11 11,11 11,10 12,10 13,11 13,13 12,13 12,12 13,12 14,13 14,19 13,19 13,18 14,18 15,19 15,20 14,20 14,19 15,19 15,18 14,18 14,12 13,12 13,10 12,10 12,9 11,9 11,2 12,2 13,3 13,8 12,8 12,7 13,7 14,8 14,9 13,9 13,8 14,8 15,9 15,11 14,11 14,10 15,10 16,11 16,15 15,15 15,14 16,14 16,10 15,10 15,8 14,8 14,7 13,7 13,4 14,4 15,5 15,6 14,6 14,5 15,5 16,6 16,7 15,7 15,6 16,6 17,7 17,9 16,9 16,8 17,8 18,9 18,13 17,13 17,12 18,12 18,8 17,8 17,6 16,6 16,5 15,5 15,4 13,4 13,2 11,2 11,4 9,4 9,5 8,5 8,6 7,6 7,8 5,8" fill="rgb(38,50,56)" /><polygon points="6,7 7,7 7,5 8,5 8,4 10,4 10,6 11,6 11,7 9,7 9,8 8,8 8,9 7,9 7,11 8,11 8,12 11,12 11,7 13,7 13,12 16,12 16,11 17,11 17,7 18,7 18,8 17,8 16,7 16,5 17,5 17,6 16,6 15,5 15,4 16,4 16,5 15,5 15,6 16,6 16,8 15,8 15,7 13,7 13,6 14,6 14,4 15,4 16,5 16,6 15,6 15,5 16,5 17,6 17,9 16,9 16,7 17,7 18,8 18,12 17,12 17,14 15,14 15,16 14,16 13,15 13,13 14,13 14,17 13,17 13,16 11,16 10,15 10,13 12,13 12,14 10,14 10,16 9,16 9,14 7,14 7,13 10,13 11,14 11,17 10,17 10,15 14,15 14,13 7,13 7,12 6,12" fill="rgb(0,150,136)" /><polygon points="8,17 10,17 10,18 11,18 11,19 13,19 13,18 14,18 14,17 16,17 16,18 15,18 15,19 14,19 14,20 10,20 10,19 9,19 9,18 8,18" fill="rgb(0,150,136)" /><polygon points="9,10 10,10 10,11 9,11" fill="rgb(255,255,255)" /><polygon points="10,1 11,1 11,0 13,0 13,1 14,1 14,6 13,6 12,5 12,2 13,2 13,3 12,3 12,6 13,6 13,7 11,7 11,6 10,5 10,2 11,2 11,6 10,6 10,5 11,5 11,2 12,2 13,3 13,6 12,6 12,5 13,5 13,2 10,2" fill="rgb(103,58,183)" /><polygon points="14,10 15,10 15,11 14,11" fill="rgb(255,255,255)" /></svg>