<?xml version="1.0"?><svg xmlns="http://www.w3.org/2000/svg" width="24" height="24"><rect width="24" height="24" style="fill:rgb(103,65,217)" /><polygon points="3,3 4,3 4,2 5,2 5,3 6,3 6,4 8,4 8,3 10,3 10,1 11,1 11,0 13,0 13,1 14,1 14,3 16,3 16,4 18,4 18,3 19,3 19,2 20,2 20,3 21,3 21,5 20,5 20,7 19,7 18,6 18,5 19,5 19,6 18,6 18,7 19,7 19,13 18,13 17,12 17,8 18,8 18,9 17,9 16,8 16,5 17,5 17,6 16,6 16,9 17,9 17,13 18,13 18,15 16,15 15,14 15,10 16,10 16,11 15,11 14,10 14,4 15,4 15,5 14,5 14,11 15,11 15,15 16,15 16,16 15,16 15,17 17,17 17,19 16,19 16,20 15,20 14,19 14,18 15,18 15,19 14,19 13,18 13,12 14,12 14,13 13,13 12,12 12,2 13,2 13,3 12,3 12,13 13,13 13,19 14,19 14,21 12,21 11,20 11,14 12,14 12,15 11,15 10,14 10,4 11,4 11,5 10,5 10,15 11,15 11,21 10,21 10,20 9,19 9,16 10,16 10,18 9,18 9,20 8,20 8,19 7,18 7,17 8,17 8,19 7,19 7,18 8,18 8,17 9,17 10,18 10,20 9,20 9,19 10,19 10,16 9,16 8,15 8,5 9,5 9,6 8,6 8,15 7,15 6,14 6,5 7,5 7,6 6,6 6,13 5,13 5,7 4,6 4,4 5,4 5,5 3,5 3,4 4,4 5,5 5,7 4,7 4,6 5,6 5,5 6,5 7,6 7,15 6,15 6,14 7,14 7,5 8,5 9,6 9,16 8,16 8,15 9,15 9,4 10,4 11,5 11,15 10,15 10,14 11,14 12,15 12,21 11,21 11,20 12,20 12,14 11,14 11,2 12,2 13,3 13,13 12,13 12,12 13,12 14,13 14,19 13,19 13,18 14,18 15,19 15,20 14,20 14,19 15,19 15,18 14,18 14,12 13,12 13,4 14,4 15,5 15,11 14,11 14,10 15,10 16,11 16,15 15,15 15,14 16,14 16,10 15,10 15,5 16,5 17,6 17,9 16,9 16,8 17,8 18,9 18,13 17,13 17,12 18,12 18,8 17,8 17,5 18,5 19,6 19,7 18,7 18,6 19,6 19,5 15,5 15,4 13,4 13,2 11,2 11,4 9,4 9,5 5,5 5,4 3,4" fill="rgb(38,50,56)" /><polygon points="3,3 4,3 4,2 5,2 5,3 6,3 6,4 7,4 7,8 6,8 5,7 5,5 6,5 6,6 5,6 4,5 4,4 5,4 5,5 3,5 3,4 4,4 5,5 5,7 4,7 4,5 5,5 6,6 6,8 5,8 5,7 6,7 6,5 5,5 5,4 3,4" fill="rgb(205,220,57)" /><polygon points="6,8 7,8 7,5 8,5 8,4 10,4 10,5 11,5 11,6 13,6 13,5 14,5 14,4 16,4 16,5 17,5 17,8 18,8 18,12 17,12 16,11 16,9 17,9 17,14 16,14 15,13 15,12 16,12 16,13 15,13 15,16 14,16 13,15 13,12 14,12 14,13 13,13 12,12 12,7 14,7 14,6 16,6 16,9 14,9 14,10 13,10 13,8 12,8 12,13 11,13 11,15 12,15 12,14 13,14 13,16 12,16 12,17 11,17 11,16 10,16 9,15 9,12 10,12 10,13 9,13 9,14 8,14 7,13 7,9 8,9 8,10 7,10 7,12 6,12 6,9 7,9 8,10 8,14 7,14 7,13 8,13 8,12 9,12 10,13 10,17 9,17 9,15 10,15 10,12 11,12 11,10 10,9 10,7 11,7 11,8 10,8 9,7 9,6 10,6 10,7 9,7 9,8 10,8 10,9 8,9 8,6 9,6 10,7 10,8 9,8 9,7 10,7 11,8 11,10 10,10 10,9 11,9 11,7 12,7 13,8 13,13 12,13 12,12 13,12 14,13 14,17 13,17 13,15 14,15 14,12 15,12 16,13 16,14 15,14 15,13 16,13 16,11 17,11 17,9 16,9 16,6 14,6 14,7 10,7 10,6 8,6 8,9 6,9" fill="rgb(255,255,255)" /><polygon points="8,17 9,17 9,18 8,18" fill="rgb(255,255,255)" /><polygon points="9,10 10,10 10,11 9,11" fill="rgb(0,188,212)" /><polygon points="9,18 10,18 10,17 11,17 11,18 12,18 12,17 13,17 13,18 14,18 14,17 16,17 16,18 15,18 15,19 14,19 14,20 10,20 10,19 9,19" fill="rgb(255,255,255)" /><polygon points="10,1 11,1 11,0 13,0 13,1 14,1 14,5 13,5 12,4 12,2 13,2 13,3 12,3 12,5 13,5 13,6 11,6 11,5 10,4 10,2 11,2 11,5 10,5 10,4 11,4 11,2 12,2 13,3 13,5 12,5 12,4 13,4 13,2 10,2" fill="rgb(205,220,57)" /><polygon points="14,10 15,10 15,11 14,11" fill="rgb(0,188,212)" /><polygon points="17,4 18,4 18,3 19,3 19,2 20,2 20,3 21,3 21,5 20,5 20,7 19,7 18,6 18,5 19,5 19,6 18,6 18,7 19,7 19,8 17,8 17,5 18,5 19,6 19,7 18,7 18,6 19,6 19,5 17,5" fill="rgb(205,220,57)" /></svg>