<?xml version="1.0"?><svg xmlns="http://www.w3.org/2000/svg" width="24" height="24"><rect width="24" height="24" style="fill:rgb(255,216,168)" /><polygon points="5,7 6,7 6,5 7,5 7,4 8,4 8,3 16,3 16,4 17,4 17,5 18,5 18,7 19,7 19,13 18,13 18,15 16,15 16,16 15,16 15,17 17,17 17,19 16,19 16,20 14,20 14,21 10,21 10,20 8,20 8,19 7,19 7,17 9,17 9,16 8,16 8,15 6,15 6,13 5,13" fill="rgb(38,50,56)" /><polygon points="6,7 7,7 7,5 8,5 8,4 16,4 16,5 17,5 17,7 18,7 18,12 17,12 17,14 15,14 15,17 14,17 14,16 13,16 13,17 11,17 11,16 10,16 10,17 9,17 9,14 7,14 7,12 6,12 6,8 7,8 7,10 8,10 8,11 9,11 9,12 11,12 11,9 10,9 10,8 9,8 9,7 8,7 8,6 9,6 9,5 15,5 15,6 16,6 16,7 15,7 15,8 14,8 14,9 13,9 13,12 12,12 12,14 11,14 11,15 13,15 13,12 15,12 15,11 16,11 16,10 17,10 17,8 16,8 16,6 15,6 15,5 9,5 9,6 8,6 8,8 6,8" fill="rgb(76,175,80)" /><polygon points="8,17 9,17 9,18 8,18" fill="rgb(76,175,80)" /><polygon points="9,10 10,10 10,11 9,11" fill="rgb(255,255,255)" /><polygon points="9,18 11,18 11,19 13,19 13,18 15,18 15,19 14,19 14,20 10,20 10,19 9,19" fill="rgb(76,175,80)" /><polygon points="14,10 15,10 15,11 14,11" fill="rgb(255,255,255)" /><polygon points="15,17 16,17 16,18 15,18" fill="rgb(76,175,80)" /></svg>