<?xml version="1.0"?><svg xmlns="http://www.w3.org/2000/svg" width="24" height="24"><rect width="24" height="24" style="fill:rgb(227,250,252)" /><polygon points="5,5 6,5 6,3 8,3 8,2 10,2 10,1 14,1 14,2 16,2 16,3 18,3 18,5 19,5 19,13 18,13 18,15 16,15 16,16 15,16 15,17 17,17 17,19 16,19 16,20 14,20 14,21 10,21 10,20 8,20 8,19 7,19 7,17 9,17 9,16 8,16 8,15 6,15 6,13 5,13" fill="rgb(38,50,56)" /><polygon points="5,5 6,5 6,3 8,3 8,2 10,2 10,1 14,1 14,2 16,2 16,3 18,3 18,5 19,5 19,7 18,7 18,6 17,6 17,7 18,7 18,12 17,12 17,14 15,14 15,16 14,16 14,17 13,17 13,16 12,16 12,17 11,17 11,16 10,16 10,17 9,17 9,14 7,14 7,12 6,12 6,7 7,7 7,4 9,4 9,3 11,3 11,2 13,2 13,3 15,3 15,7 16,7 16,8 14,8 14,9 13,9 13,12 11,12 11,9 10,9 10,8 8,8 8,9 7,9 7,11 8,11 8,12 11,12 11,14 13,14 13,12 16,12 16,11 17,11 17,9 16,9 16,7 15,7 15,3 13,3 13,2 11,2 11,3 9,3 9,4 7,4 7,6 6,6 6,7 5,7" fill="rgb(205,220,57)" /><polygon points="8,17 9,17 9,18 8,18" fill="rgb(205,220,57)" /><polygon points="9,10 10,10 10,11 9,11" fill="rgb(255,205,210)" /><polygon points="9,18 10,18 10,17 11,17 11,18 14,18 14,17 16,17 16,18 15,18 15,19 14,19 14,20 10,20 10,19 9,19" fill="rgb(205,220,57)" /><polygon points="14,10 15,10 15,11 14,11" fill="rgb(255,205,210)" /></svg>