<?xml version="1.0"?><svg xmlns="http://www.w3.org/2000/svg" width="24" height="24"><rect width="24" height="24" style="fill:rgb(255,255,255)" /><polygon points="1,2 3,2 3,0 6,0 6,3 7,3 7,4 8,4 8,5 7,5 7,8 6,8 5,7 5,4 6,4 6,5 5,5 4,4 4,1 5,1 5,4 4,4 4,5 3,5 2,4 2,3 3,3 3,4 2,4 2,5 1,5 1,3 2,3 3,4 3,5 2,5 2,4 3,4 3,3 4,3 5,4 5,7 4,7 4,4 5,4 6,5 6,12 7,12 7,14 9,14 9,17 8,17 7,16 7,15 8,15 8,16 7,16 7,17 8,17 8,18 9,18 9,19 10,19 10,20 8,20 8,19 6,19 5,18 5,15 6,15 6,17 5,17 5,19 6,19 6,22 5,22 4,21 4,20 5,20 5,21 4,21 3,20 3,17 4,17 4,18 3,18 3,20 2,20 1,19 1,17 2,17 2,20 1,20 1,19 2,19 2,17 3,17 4,18 4,22 3,22 3,20 4,20 5,21 5,22 4,22 4,21 5,21 5,20 4,20 4,16 5,16 6,17 6,19 5,19 5,18 6,18 6,15 7,15 8,16 8,17 7,17 7,16 8,16 8,15 6,15 6,13 5,13 5,7 6,7 6,4 5,4 5,1 4,1 4,3 1,3" fill="rgb(38,50,56)" /><polygon points="2,3 3,3 3,4 2,4" fill="rgb(0,150,136)" /><polygon points="2,18 4,18 4,17 5,17 5,16 6,16 6,15 8,15 8,16 7,16 7,18 6,18 6,19 5,19 5,21 4,21 4,20 3,20 3,19 2,19" fill="rgb(0,150,136)" /><polygon points="3,2 4,2 4,3 3,3" fill="rgb(0,150,136)" /><polygon points="3,3 4,3 4,2 5,2 5,3 6,3 6,4 7,4 7,8 6,8 5,7 5,5 6,5 6,6 5,6 4,5 4,4 5,4 5,5 3,5 3,4 4,4 5,5 5,7 4,7 4,5 5,5 6,6 6,8 5,8 5,7 6,7 6,5 5,5 5,4 3,4" fill="rgb(0,188,212)" /><polygon points="4,1 5,1 5,2 4,2" fill="rgb(0,150,136)" /><polygon points="9,10 10,10 10,11 9,11" fill="rgb(156,39,176)" /><polygon points="10,1 11,1 11,0 13,0 13,1 14,1 14,5 13,5 12,4 12,2 13,2 13,3 12,3 12,5 13,5 13,6 11,6 11,5 10,4 10,2 11,2 11,5 10,5 10,4 11,4 11,2 12,2 13,3 13,5 12,5 12,4 13,4 13,2 10,2" fill="rgb(0,188,212)" /><polygon points="14,10 15,10 15,11 14,11" fill="rgb(156,39,176)" /><polygon points="16,15 18,15 18,16 19,16 19,17 20,17 20,18 22,18 22,19 21,19 21,20 20,20 20,21 19,21 19,19 18,19 18,18 17,18 17,16 16,16" fill="rgb(0,150,136)" /><polygon points="17,4 18,4 18,3 19,3 19,2 20,2 20,3 21,3 21,5 20,5 20,7 19,7 18,6 18,5 19,5 19,6 18,6 18,7 19,7 19,8 17,8 17,5 18,5 19,6 19,7 18,7 18,6 19,6 19,5 17,5" fill="rgb(0,188,212)" /><polygon points="19,1 20,1 20,2 19,2" fill="rgb(0,150,136)" /><polygon points="20,2 21,2 21,3 20,3" fill="rgb(0,150,136)" /><polygon points="21,3 22,3 22,4 21,4" fill="rgb(0,150,136)" /></svg>