<?xml version="1.0"?><svg xmlns="http://www.w3.org/2000/svg" width="24" height="24"><rect width="24" height="24" style="fill:rgb(255,255,255)" /><polygon points="5,7 6,7 6,12 7,12 7,14 9,14 9,16 8,16 8,15 6,15 6,13 5,13" fill="rgb(38,50,56)" /><polygon points="8,3 9,3 9,2 16,2 16,3 17,3 17,4 18,4 18,6 19,6 19,9 18,9 17,8 17,7 18,7 18,8 17,8 16,7 16,5 17,5 17,6 16,6 15,5 15,4 16,4 16,5 15,5 14,4 14,3 15,3 15,4 14,4 14,5 15,5 15,6 16,6 16,8 17,8 17,9 18,9 18,10 16,10 16,9 15,9 14,8 14,7 15,7 15,8 14,8 13,7 13,6 14,6 14,7 13,7 12,6 12,3 13,3 13,4 12,4 12,7 11,7 11,6 10,5 10,3 11,3 11,5 8,5 8,4 10,4 11,5 11,6 10,6 10,5 11,5 11,3 12,3 13,4 13,8 12,8 12,6 13,6 14,7 14,8 13,8 13,7 14,7 15,8 15,9 14,9 14,8 15,8 15,7 14,7 14,6 13,6 13,3 14,3 15,4 15,5 14,5 14,4 15,4 16,5 16,6 15,6 15,5 16,5 17,6 17,8 16,8 16,7 17,7 18,8 18,9 17,9 17,8 18,8 18,7 17,7 17,5 16,5 16,4 15,4 15,3 10,3 10,4 8,4" fill="rgb(76,175,80)" /><polygon points="9,10 10,10 10,11 9,11" fill="rgb(233,30,99)" /><polygon points="14,10 15,10 15,11 14,11" fill="rgb(233,30,99)" /></svg>