<?xml version="1.0"?><svg xmlns="http://www.w3.org/2000/svg" width="24" height="24"><rect width="24" height="24" style="fill:rgb(255,255,255)" /><polygon points="5,7 6,7 6,12 7,12 7,14 9,14 9,16 8,16 8,15 6,15 6,13 5,13" fill="rgb(38,50,56)" /><polygon points="8,3 9,3 9,2 16,2 16,3 17,3 17,4 18,4 18,6 19,6 19,9 18,9 18,10 16,10 16,9 14,9 14,8 12,8 12,7 11,7 11,6 10,6 10,5 8,5" fill="rgb(76,175,80)" /><polygon points="9,10 10,10 10,11 9,11" fill="rgb(233,30,99)" /><polygon points="14,10 15,10 15,11 14,11" fill="rgb(233,30,99)" /></svg>