<?xml version="1.0"?><svg xmlns="http://www.w3.org/2000/svg" width="24" height="24"><rect width="24" height="24" style="fill:rgb(243,217,250)" /><polygon points="5,5 6,5 6,3 7,3 7,2 8,2 8,1 16,1 16,2 17,2 17,3 18,3 18,5 19,5 19,13 18,13 18,15 16,15 16,16 15,16 15,17 17,17 17,21 16,21 16,22 15,22 15,23 14,23 14,24 10,24 10,23 9,23 9,22 8,22 8,21 7,21 7,17 9,17 9,16 8,16 8,15 6,15 6,13 5,13" fill="rgb(38,50,56)" /><polygon points="5,5 6,5 6,3 7,3 7,2 8,2 8,1 16,1 16,2 17,2 17,3 18,3 18,5 19,5 19,7 18,7 18,6 16,6 16,4 14,4 14,7 13,7 13,8 11,8 11,7 10,7 10,4 8,4 8,6 6,6 6,7 5,7" fill="rgb(255,193,7)" /><polygon points="6,7 7,7 7,6 8,6 8,4 10,4 10,7 11,7 11,8 13,8 13,7 14,7 14,4 16,4 16,6 17,6 17,7 18,7 18,12 17,12 17,14 15,14 15,16 14,16 14,17 13,17 13,16 10,16 10,17 9,17 9,14 7,14 7,12 6,12 6,8 8,8 8,7 9,7 9,8 10,8 10,9 8,9 8,12 11,12 11,10 10,10 10,9 14,9 14,10 13,10 13,12 12,12 12,13 11,13 11,15 13,15 13,12 16,12 16,9 10,9 10,8 9,8 9,7 8,7 8,8 6,8" fill="rgb(205,220,57)" /><polygon points="7,18 8,18 8,19 9,19 9,20 10,20 10,21 14,21 14,20 15,20 15,19 16,19 16,18 17,18 17,21 16,21 16,22 15,22 15,23 14,23 14,24 10,24 10,23 9,23 9,22 8,22 8,21 7,21" fill="rgb(69,90,100)" /><polygon points="8,17 9,17 9,18 8,18" fill="rgb(205,220,57)" /><polygon points="9,10 10,10 10,11 9,11" fill="rgb(33,150,243)" /><polygon points="9,18 10,18 10,17 11,17 11,18 14,18 14,17 16,17 16,18 15,18 15,19 14,19 14,20 10,20 10,19 9,19" fill="rgb(205,220,57)" /><polygon points="14,10 15,10 15,11 14,11" fill="rgb(33,150,243)" /></svg>