<?xml version="1.0"?><svg xmlns="http://www.w3.org/2000/svg" width="24" height="24"><rect width="24" height="24" style="fill:rgb(186,200,255)" /><polygon points="5,5 6,5 6,4 7,4 7,3 8,3 8,2 10,2 10,1 14,1 14,2 16,2 16,3 18,3 18,5 19,5 19,13 18,13 18,15 16,15 16,16 15,16 15,17 17,17 17,20 16,20 16,21 15,21 15,22 14,22 14,23 13,23 13,24 11,24 11,23 10,23 10,22 9,22 9,21 8,21 8,20 7,20 7,17 9,17 9,16 8,16 8,15 6,15 6,13 5,13" fill="rgb(38,50,56)" /><polygon points="6,7 7,7 7,6 9,6 9,4 11,4 11,5 13,5 13,6 14,6 14,7 15,7 15,8 14,8 14,9 13,9 13,12 15,12 15,11 16,11 16,10 17,10 17,8 16,8 16,7 15,7 15,6 16,6 16,5 17,5 17,7 18,7 18,12 17,12 17,14 15,14 15,17 16,17 16,18 15,18 15,19 14,19 14,20 10,20 10,19 9,19 9,18 8,18 8,17 9,17 9,14 7,14 7,12 6,12 6,8 7,8 7,10 8,10 8,11 9,11 9,12 11,12 11,10 12,10 12,14 11,14 11,15 13,15 13,13 14,13 14,17 13,17 13,16 12,16 12,17 11,17 11,16 10,16 10,17 11,17 11,18 12,18 12,17 13,17 13,18 14,18 14,13 12,13 12,10 11,10 11,9 10,9 10,8 9,8 9,7 8,7 8,8 6,8" fill="rgb(255,255,255)" /><polygon points="9,10 10,10 10,11 9,11" fill="rgb(255,255,255)" /><polygon points="14,10 15,10 15,11 14,11" fill="rgb(255,255,255)" /></svg>