<?xml version="1.0"?><svg xmlns="http://www.w3.org/2000/svg" width="24" height="24"><rect width="24" height="24" style="fill:rgb(9,146,104)" /><polygon points="1,2 3,2 3,0 6,0 6,3 7,3 7,2 8,2 8,1 16,1 16,2 17,2 17,3 18,3 18,0 21,0 21,2 23,2 23,5 22,5 21,4 21,3 22,3 22,4 21,4 21,5 20,5 19,4 19,1 20,1 20,5 19,5 19,13 18,13 17,12 17,4 18,4 18,5 17,5 17,13 18,13 18,15 19,15 19,16 20,16 20,17 23,17 23,20 22,20 21,19 21,18 22,18 22,19 21,19 21,22 20,22 19,21 19,18 20,18 20,19 19,19 18,18 18,17 19,17 19,18 18,18 17,17 17,16 18,16 18,17 17,17 16,16 16,14 17,14 17,15 16,15 15,14 15,3 16,3 16,4 15,4 14,3 14,2 15,2 15,3 14,3 14,4 15,4 15,15 16,15 16,17 17,17 17,18 18,18 18,19 16,19 16,20 15,20 14,19 14,16 15,16 15,17 14,17 13,16 13,5 14,5 14,6 13,6 12,5 12,2 13,2 13,3 12,3 12,6 13,6 13,17 14,17 14,21 13,21 12,20 12,18 13,18 13,19 12,19 11,18 11,7 12,7 12,8 11,8 10,7 10,2 11,2 11,3 10,3 10,8 11,8 11,19 12,19 12,21 10,21 10,20 9,19 9,9 10,9 10,10 9,10 8,9 8,3 9,3 9,5 8,5 8,10 9,10 9,20 8,20 8,19 7,18 7,11 8,11 8,12 7,12 6,11 6,4 7,4 7,5 6,5 6,12 7,12 7,19 6,19 5,18 5,15 6,15 6,17 5,17 5,19 6,19 6,22 5,22 4,21 4,20 5,20 5,21 4,21 3,20 3,17 4,17 4,18 3,18 3,20 2,20 1,19 1,17 2,17 2,20 1,20 1,19 2,19 2,17 3,17 4,18 4,22 3,22 3,20 4,20 5,21 5,22 4,22 4,21 5,21 5,20 4,20 4,16 5,16 6,17 6,19 5,19 5,18 6,18 6,13 5,13 5,5 4,4 4,1 5,1 5,4 4,4 4,5 3,5 2,4 2,3 3,3 3,4 2,4 2,5 1,5 1,3 2,3 3,4 3,5 2,5 2,4 3,4 3,3 4,3 5,4 5,5 4,5 4,4 6,4 7,5 7,12 6,12 6,11 7,11 8,12 8,19 7,19 7,18 8,18 8,11 7,11 7,4 8,4 9,5 9,10 8,10 8,9 9,9 10,10 10,20 9,20 9,19 10,19 10,9 9,9 9,2 10,2 11,3 11,8 10,8 10,7 11,7 12,8 12,19 11,19 11,18 12,18 13,19 13,21 12,21 12,20 13,20 13,18 12,18 12,7 11,7 11,2 12,2 13,3 13,6 12,6 12,5 13,5 14,6 14,17 13,17 13,16 14,16 15,17 15,20 14,20 14,19 15,19 15,16 14,16 14,5 13,5 13,2 14,2 15,3 15,4 14,4 14,3 15,3 16,4 16,15 15,15 15,14 16,14 17,15 17,17 16,17 16,16 17,16 18,17 18,18 17,18 17,17 18,17 19,18 19,22 18,22 18,18 19,18 20,19 20,22 19,22 19,21 20,21 20,18 21,18 22,19 22,20 21,20 21,19 22,19 22,18 19,18 19,17 18,17 18,16 17,16 17,14 16,14 16,4 17,4 18,5 18,13 17,13 17,12 18,12 18,4 20,4 20,3 21,3 22,4 22,5 21,5 21,4 22,4 22,3 20,3 20,1 19,1 19,4 16,4 16,3 15,3 15,2 9,2 9,3 8,3 8,4 5,4 5,1 4,1 4,3 1,3" fill="rgb(38,50,56)" /><polygon points="2,3 3,3 3,2 4,2 4,1 5,1 5,3 6,3 6,5 5,5 5,4 2,4" fill="rgb(255,193,7)" /><polygon points="2,18 4,18 4,17 5,17 5,16 6,16 6,15 8,15 8,16 7,16 7,18 6,18 6,19 5,19 5,21 4,21 4,20 3,20 3,19 2,19" fill="rgb(255,193,7)" /><polygon points="5,5 6,5 6,3 7,3 7,2 8,2 8,1 16,1 16,2 17,2 17,3 18,3 18,5 19,5 19,7 18,7 18,6 17,6 16,5 16,4 17,4 17,6 16,6 16,5 17,5 17,4 15,4 14,3 14,2 15,2 15,3 14,3 14,7 13,7 12,6 12,2 13,2 13,3 12,3 12,7 13,7 13,8 11,8 11,7 10,6 10,2 11,2 11,3 10,3 10,4 8,4 8,3 9,3 9,2 10,2 11,3 11,7 10,7 10,6 11,6 11,2 12,2 13,3 13,7 12,7 12,6 13,6 13,2 14,2 15,3 15,4 14,4 14,3 15,3 15,2 9,2 9,3 8,3 8,6 6,6 6,7 5,7" fill="rgb(139,195,74)" /><polygon points="6,7 7,7 7,6 8,6 8,4 10,4 10,7 11,7 11,8 13,8 13,7 14,7 14,4 16,4 16,6 17,6 17,7 18,7 18,12 17,12 17,14 16,14 15,13 15,12 16,12 16,13 15,13 15,17 16,17 16,18 15,18 15,19 14,19 14,20 13,20 12,19 12,18 13,18 13,19 12,19 12,20 11,20 10,19 10,17 11,17 11,18 10,18 9,17 9,12 11,12 11,9 14,9 14,10 13,10 13,12 12,12 12,10 10,10 10,9 11,9 12,10 12,13 11,13 11,15 13,15 13,12 14,12 14,17 13,17 13,16 10,16 10,13 9,13 9,14 8,14 7,13 7,11 8,11 8,12 7,12 6,11 6,8 8,8 8,9 7,9 7,12 6,12 6,11 7,11 8,12 8,14 7,14 7,13 8,13 8,12 9,12 10,13 10,19 9,19 9,18 8,18 8,17 10,17 11,18 11,20 10,20 10,19 11,19 11,18 12,18 13,19 13,20 12,20 12,19 13,19 13,18 14,18 14,12 15,12 16,13 16,14 15,14 15,13 16,13 16,11 17,11 17,9 16,9 16,8 14,8 14,9 10,9 10,8 6,8" fill="rgb(63,81,181)" /><polygon points="16,15 18,15 18,16 19,16 19,17 20,17 20,18 22,18 22,19 21,19 21,20 20,20 20,21 19,21 19,19 18,19 18,18 17,18 17,16 16,16" fill="rgb(255,193,7)" /><polygon points="18,3 19,3 19,1 20,1 20,2 21,2 21,3 22,3 22,4 19,4 19,5 18,5" fill="rgb(255,193,7)" /></svg>