<?xml version="1.0"?><svg xmlns="http://www.w3.org/2000/svg" width="24" height="24"><rect width="24" height="24" style="fill:rgb(140,233,154)" /><polygon points="1,2 3,2 3,0 6,0 6,3 7,3 7,4 8,4 8,3 10,3 10,1 11,1 11,0 13,0 13,1 14,1 14,3 16,3 16,4 17,4 17,3 18,3 18,0 21,0 21,2 23,2 23,5 22,5 21,4 21,3 22,3 22,4 21,4 21,5 20,5 19,4 19,1 20,1 20,7 19,7 18,6 18,4 19,4 19,6 18,6 18,7 19,7 19,13 18,13 17,12 17,8 18,8 18,9 17,9 16,8 16,5 17,5 17,6 16,6 16,9 17,9 17,13 18,13 18,15 19,15 19,16 20,16 20,17 23,17 23,20 22,20 21,19 21,18 22,18 22,19 21,19 21,22 20,22 19,21 19,18 20,18 20,19 19,19 18,18 18,17 19,17 19,18 18,18 17,17 17,16 18,16 18,17 17,17 16,16 16,14 17,14 17,15 16,15 15,14 15,10 16,10 16,11 15,11 14,10 14,4 15,4 15,5 14,5 14,11 15,11 15,15 16,15 16,17 17,17 17,18 18,18 18,19 16,19 16,20 15,20 14,19 14,16 15,16 15,17 14,17 13,16 13,12 14,12 14,13 13,13 12,12 12,2 13,2 13,3 12,3 12,13 13,13 13,17 14,17 14,21 13,21 12,20 12,18 13,18 13,19 12,19 11,18 11,14 12,14 12,15 11,15 10,14 10,4 11,4 11,5 10,5 10,15 11,15 11,19 12,19 12,21 10,21 10,20 9,19 9,16 10,16 10,17 9,17 8,16 8,5 9,5 9,6 8,6 8,17 9,17 9,20 8,20 8,19 7,19 6,18 6,5 7,5 7,6 6,6 5,5 5,4 6,4 6,5 5,5 4,4 4,1 5,1 5,4 4,4 4,5 3,5 2,4 2,3 3,3 3,4 2,4 2,5 1,5 1,3 2,3 3,4 3,5 2,5 2,4 3,4 3,3 4,3 5,4 5,6 6,6 6,13 5,13 5,7 4,7 4,4 5,4 6,5 6,6 5,6 5,5 6,5 7,6 7,16 6,16 6,22 5,22 4,21 4,16 5,16 5,18 4,18 4,22 3,22 3,20 2,19 2,17 3,17 3,18 2,18 2,20 1,20 1,17 2,17 3,18 3,20 2,20 2,19 3,19 3,17 4,17 5,18 5,22 4,22 4,21 5,21 5,15 6,15 7,16 7,19 6,19 6,18 7,18 7,5 8,5 9,6 9,17 8,17 8,16 9,16 10,17 10,20 9,20 9,19 10,19 10,16 9,16 9,4 10,4 11,5 11,15 10,15 10,14 11,14 12,15 12,19 11,19 11,18 12,18 13,19 13,21 12,21 12,20 13,20 13,18 12,18 12,14 11,14 11,2 12,2 13,3 13,13 12,13 12,12 13,12 14,13 14,17 13,17 13,16 14,16 15,17 15,20 14,20 14,19 15,19 15,16 14,16 14,12 13,12 13,4 14,4 15,5 15,11 14,11 14,10 15,10 16,11 16,15 15,15 15,14 16,14 17,15 17,17 16,17 16,16 17,16 18,17 18,18 17,18 17,17 18,17 19,18 19,22 18,22 18,18 19,18 20,19 20,22 19,22 19,21 20,21 20,18 21,18 22,19 22,20 21,20 21,19 22,19 22,18 19,18 19,17 18,17 18,16 17,16 17,14 16,14 16,10 15,10 15,5 16,5 17,6 17,9 16,9 16,8 17,8 18,9 18,13 17,13 17,12 18,12 18,8 17,8 17,5 18,5 19,6 19,7 18,7 18,6 19,6 19,4 20,4 20,3 21,3 22,4 22,5 21,5 21,4 22,4 22,3 20,3 20,1 19,1 19,4 18,4 18,5 15,5 15,4 13,4 13,2 11,2 11,4 9,4 9,5 6,5 6,4 5,4 5,1 4,1 4,3 1,3" fill="rgb(38,50,56)" /><polygon points="2,3 3,3 3,4 2,4" fill="rgb(33,150,243)" /><polygon points="2,18 4,18 4,17 5,17 5,16 6,16 6,15 8,15 8,16 7,16 7,18 6,18 6,19 5,19 5,21 4,21 4,20 3,20 3,19 2,19" fill="rgb(33,150,243)" /><polygon points="3,2 4,2 4,3 3,3" fill="rgb(33,150,243)" /><polygon points="3,3 4,3 4,2 5,2 5,3 6,3 6,4 7,4 7,8 6,8 5,7 5,5 6,5 6,6 5,6 4,5 4,4 5,4 5,5 3,5 3,4 4,4 5,5 5,7 4,7 4,5 5,5 6,6 6,8 5,8 5,7 6,7 6,5 5,5 5,4 3,4" fill="rgb(3,169,244)" /><polygon points="4,1 5,1 5,2 4,2" fill="rgb(33,150,243)" /><polygon points="6,8 7,8 7,5 8,5 8,4 10,4 10,5 11,5 11,6 13,6 13,5 14,5 14,4 16,4 16,5 17,5 17,8 18,8 18,12 17,12 17,14 16,14 15,13 15,12 16,12 16,13 15,13 15,16 14,16 13,15 13,12 14,12 14,17 13,17 13,16 11,16 10,15 10,12 11,12 11,7 14,7 14,6 16,6 16,8 14,8 14,10 13,10 12,9 12,8 13,8 13,12 12,12 12,9 13,9 13,8 11,8 11,10 10,10 10,8 9,7 9,6 10,6 10,7 9,7 9,8 8,8 8,6 9,6 10,7 10,8 9,8 9,7 11,7 12,8 12,13 10,13 10,17 9,17 9,14 8,13 8,12 9,12 9,13 8,13 7,12 7,11 8,11 8,12 7,12 6,11 6,9 7,9 7,12 6,12 6,11 7,11 8,12 8,14 7,14 7,12 8,12 9,13 9,14 8,14 8,13 9,13 9,12 10,12 11,13 11,16 10,16 10,15 14,15 14,12 15,12 16,13 16,14 15,14 15,13 16,13 16,11 17,11 17,9 16,9 16,6 14,6 14,7 10,7 10,6 8,6 8,9 6,9" fill="rgb(233,30,99)" /><polygon points="8,17 9,17 9,18 8,18" fill="rgb(233,30,99)" /><polygon points="9,10 10,10 10,11 9,11" fill="rgb(255,152,0)" /><polygon points="9,18 10,18 10,17 11,17 11,18 14,18 14,17 16,17 16,18 15,18 15,19 14,19 14,20 10,20 10,19 9,19" fill="rgb(233,30,99)" /><polygon points="10,1 11,1 11,0 13,0 13,1 14,1 14,5 13,5 12,4 12,2 13,2 13,3 12,3 12,5 13,5 13,6 11,6 11,5 10,4 10,2 11,2 11,5 10,5 10,4 11,4 11,2 12,2 13,3 13,5 12,5 12,4 13,4 13,2 10,2" fill="rgb(3,169,244)" /><polygon points="14,10 15,10 15,11 14,11" fill="rgb(255,152,0)" /><polygon points="16,15 18,15 18,16 19,16 19,17 20,17 20,18 22,18 22,19 21,19 21,20 20,20 20,21 19,21 19,19 18,19 18,18 17,18 17,16 16,16" fill="rgb(33,150,243)" /><polygon points="17,4 18,4 18,3 19,3 19,2 20,2 20,3 21,3 21,5 20,5 20,7 19,7 18,6 18,5 19,5 19,6 18,6 18,7 19,7 19,8 17,8 17,5 18,5 19,6 19,7 18,7 18,6 19,6 19,5 17,5" fill="rgb(3,169,244)" /><polygon points="19,1 20,1 20,2 19,2" fill="rgb(33,150,243)" /><polygon points="20,2 21,2 21,3 20,3" fill="rgb(33,150,243)" /><polygon points="21,3 22,3 22,4 21,4" fill="rgb(33,150,243)" /></svg>