<?xml version="1.0"?><svg xmlns="http://www.w3.org/2000/svg" width="24" height="24"><rect width="24" height="24" style="fill:rgb(255,169,77)" /><polygon points="3,3 4,3 4,2 5,2 5,3 6,3 6,4 8,4 8,3 10,3 10,1 11,1 11,0 13,0 13,1 14,1 14,3 16,3 16,4 18,4 18,3 19,3 19,2 20,2 20,3 21,3 21,5 20,5 20,7 19,7 19,13 18,13 18,15 16,15 16,16 15,16 15,17 17,17 17,21 16,21 16,22 15,22 15,23 14,23 14,24 10,24 10,23 9,23 9,22 8,22 8,21 7,21 7,17 9,17 9,16 8,16 8,15 6,15 6,13 5,13 5,7 4,7 4,5 3,5" fill="rgb(38,50,56)" /><polygon points="3,3 4,3 4,2 5,2 5,3 6,3 6,4 7,4 7,5 8,5 8,4 10,4 10,1 11,1 11,0 13,0 13,1 14,1 14,4 16,4 16,5 17,5 17,4 18,4 18,3 19,3 19,2 20,2 20,3 21,3 21,5 20,5 20,7 19,7 19,8 18,8 18,12 17,12 17,14 15,14 15,16 14,16 14,17 13,17 13,13 12,13 12,14 11,14 11,15 13,15 13,16 11,16 11,17 10,17 10,16 9,16 9,14 7,14 7,12 6,12 6,8 5,8 5,7 4,7 4,5 3,5 3,4 5,4 5,5 6,5 6,6 9,6 9,5 11,5 11,10 10,10 10,8 8,8 8,9 7,9 7,11 8,11 8,12 11,12 11,2 13,2 13,5 15,5 15,6 16,6 16,8 14,8 14,10 13,10 13,12 16,12 16,11 17,11 17,9 16,9 16,6 15,6 15,5 13,5 13,2 11,2 11,5 9,5 9,6 6,6 6,5 5,5 5,4 3,4" fill="rgb(255,235,59)" /><polygon points="7,18 8,18 8,19 9,19 9,20 10,20 10,21 14,21 14,20 15,20 15,19 16,19 16,18 17,18 17,21 16,21 16,22 15,22 15,23 14,23 14,24 10,24 10,23 9,23 9,22 8,22 8,21 7,21" fill="rgb(69,90,100)" /><polygon points="8,17 10,17 10,18 11,18 11,19 13,19 13,18 14,18 14,17 16,17 16,18 15,18 15,19 14,19 14,20 10,20 10,19 9,19 9,18 8,18" fill="rgb(255,235,59)" /><polygon points="9,10 10,10 10,11 9,11" fill="rgb(255,152,0)" /><polygon points="14,10 15,10 15,11 14,11" fill="rgb(255,152,0)" /></svg>